<svg width="348" height="402" viewBox="0 0 348 402" fill="none" xmlns="http://www.w3.org/2000/svg">
<g clip-path="url(#clip0_92_2389)">
<path d="M178.102 371.829C270.38 371.829 345.185 296.979 345.185 204.647C345.185 112.314 270.38 37.4641 178.102 37.4641C85.8246 37.4641 11.0189 112.314 11.0189 204.647C11.0189 296.979 85.8246 371.829 178.102 371.829Z" fill="white"/>
<path d="M286.152 70.351C286.331 66.608 286.715 60.6831 288.242 60.9222C289.016 61.0431 289.345 65.6038 289.68 65.24C290.159 64.7179 289.149 59.5374 290.904 59.4667C292.25 59.4127 292.089 65.1654 292.801 65.0175C293.381 64.8966 292.789 58.8238 294.484 58.6335C295.916 58.4728 294.978 65.0188 296.346 65.7851C297.397 66.374 295.992 59.0887 297.301 58.937C298.861 58.757 299.317 63.5607 299.369 63.9619C299.493 64.9545 301.386 67.3024 299.09 76.3737C298.644 78.1327 298.522 80.0909 298.646 82.1443C294.15 82.3719 289.682 82.4555 285.218 82.3784C285.599 78.1134 285.978 73.9847 286.152 70.351Z" fill="#FDBDBE"/>
<path d="M275.06 32.4368V368.65C275.06 386.553 260.513 401.087 242.557 401.087H108.838C90.8984 401.087 76.3353 386.555 76.3353 368.65V32.4368C76.3353 14.5167 90.8984 0 108.838 0H242.557C260.513 0 275.06 14.5167 275.06 32.4368Z" fill="#C782F9"/>
<path d="M238.046 391.309H113.356C99.2036 391.309 87.7302 379.859 87.7302 365.736V35.3464C87.7302 21.2232 99.2036 9.77319 113.356 9.77319H238.046C252.198 9.77319 263.671 21.2232 263.671 35.3464V365.737C263.671 379.861 252.198 391.309 238.046 391.309Z" fill="white"/>
<path d="M202.378 375.838H142.684C142.125 375.838 141.673 375.386 141.673 374.828V374.433C141.673 373.877 142.125 373.424 142.684 373.424H202.378C202.938 373.424 203.39 373.875 203.39 374.433V374.828C203.39 375.386 202.936 375.838 202.378 375.838Z" fill="#C782F9"/>
<path d="M125.517 3.68397V9.19747C125.517 15.3513 130.503 20.3415 136.654 20.3415H214.746C220.897 20.3415 225.883 15.3526 225.883 9.19747V1.30396L125.517 3.68397Z" fill="#C782F9"/>
<path d="M209.815 10.1526C209.815 11.0681 209.072 11.8113 208.153 11.8113C207.234 11.8113 206.491 11.0694 206.491 10.1526C206.491 9.2358 207.234 8.4939 208.153 8.4939C209.072 8.4939 209.815 9.23709 209.815 10.1526Z" fill="white"/>
<path d="M191.111 11.8113H160.024C159.106 11.8113 158.362 11.0694 158.362 10.1526C158.362 9.23709 159.106 8.4939 160.024 8.4939H191.111C192.028 8.4939 192.773 9.2358 192.773 10.1526C192.773 11.0694 192.028 11.8113 191.111 11.8113Z" fill="white"/>
<path opacity="0.3" d="M242.979 164.014H115.12C110.158 164.014 106.137 160.001 106.137 155.049V46.5188C106.137 41.5672 110.158 37.5542 115.12 37.5542H242.979C247.941 37.5542 251.962 41.5672 251.962 46.5188V155.05C251.962 160.001 247.941 164.014 242.979 164.014Z" fill="#9810FA"/>
<path opacity="0.3" d="M242.979 237.658H115.12C110.158 237.658 106.137 233.645 106.137 228.693V187.959C106.137 183.008 110.158 178.995 115.12 178.995H242.979C247.941 178.995 251.962 183.008 251.962 187.959V228.693C251.962 233.645 247.941 237.658 242.979 237.658Z" fill="#9810FA"/>
<path opacity="0.3" d="M229.909 341.795H108.198C107.059 341.795 106.137 340.874 106.137 339.737V339.242C106.137 338.106 107.059 337.185 108.198 337.185H229.909C231.047 337.185 231.971 338.106 231.971 339.242V339.737C231.97 340.874 231.047 341.795 229.909 341.795Z" fill="#9810FA"/>
<path opacity="0.3" d="M178.019 351.01H108.198C107.059 351.01 106.137 350.089 106.137 348.953V348.458C106.137 347.322 107.059 346.4 108.198 346.4H178.019C179.157 346.4 180.081 347.321 180.081 348.458V348.953C180.079 350.088 179.157 351.01 178.019 351.01Z" fill="#9810FA"/>
<path opacity="0.3" d="M242.979 325.782H115.12C110.158 325.782 106.137 321.769 106.137 316.818V276.084C106.137 271.132 110.158 267.119 115.12 267.119H242.979C247.941 267.119 251.962 271.132 251.962 276.084V316.818C251.962 321.769 247.941 325.782 242.979 325.782Z" fill="#9810FA"/>
<path opacity="0.3" d="M321.482 194.603H193.622C188.66 194.603 184.639 190.59 184.639 185.638V77.1079C184.639 72.1576 188.66 68.1433 193.622 68.1433H321.482C326.444 68.1433 330.465 72.1576 330.465 77.1079V185.64C330.465 190.59 326.444 194.603 321.482 194.603Z" fill="white"/>
<path d="M316.454 188.493H188.595C183.634 188.493 179.612 184.479 179.612 179.528V70.9966C179.612 66.0462 183.634 62.032 188.595 62.032H316.454C321.416 62.032 325.437 66.045 325.437 70.9966V179.528C325.437 184.479 321.415 188.493 316.454 188.493Z" fill="#C782F9" fill-opacity="0.4"/>
<path d="M325.437 85.0221H179.612V70.9966C179.612 66.045 183.634 62.032 188.595 62.032H316.454C321.416 62.032 325.437 66.045 325.437 70.9966V85.0221Z" fill="#C782F9"/>
<path d="M203.427 108.377H194.311C193.023 108.377 191.978 107.334 191.978 106.049V96.9516C191.978 95.6658 193.023 94.623 194.311 94.623H203.427C204.716 94.623 205.76 95.6658 205.76 96.9516V106.049C205.76 107.336 204.716 108.377 203.427 108.377Z" fill="white"/>
<path d="M221.312 108.377H212.196C210.908 108.377 209.863 107.334 209.863 106.049V96.9516C209.863 95.6658 210.908 94.623 212.196 94.623H221.312C222.6 94.623 223.645 95.6658 223.645 96.9516V106.049C223.645 107.336 222.6 108.377 221.312 108.377Z" fill="white"/>
<path d="M239.198 108.377H230.082C228.794 108.377 227.749 107.334 227.749 106.049V96.9516C227.749 95.6658 228.794 94.623 230.082 94.623H239.198C240.486 94.623 241.531 95.6658 241.531 96.9516V106.049C241.53 107.336 240.486 108.377 239.198 108.377Z" fill="white"/>
<path d="M257.082 108.377H247.967C246.678 108.377 245.633 107.334 245.633 106.049V96.9516C245.633 95.6658 246.678 94.623 247.967 94.623H257.082C258.371 94.623 259.416 95.6658 259.416 96.9516V106.049C259.414 107.336 258.371 108.377 257.082 108.377Z" fill="white"/>
<path d="M274.967 108.377H265.851C264.563 108.377 263.518 107.334 263.518 106.049V96.9516C263.518 95.6658 264.563 94.623 265.851 94.623H274.967C276.256 94.623 277.3 95.6658 277.3 96.9516V106.049C277.299 107.336 276.256 108.377 274.967 108.377Z" fill="white"/>
<path d="M292.852 108.377H283.736C282.448 108.377 281.403 107.334 281.403 106.049V96.9516C281.403 95.6658 282.448 94.623 283.736 94.623H292.852C294.14 94.623 295.185 95.6658 295.185 96.9516V106.049C295.185 107.336 294.14 108.377 292.852 108.377Z" fill="#9810FA" fill-opacity="0.79"/>
<path d="M310.736 108.377H301.621C300.332 108.377 299.287 107.334 299.287 106.049V96.9516C299.287 95.6658 300.332 94.623 301.621 94.623H310.736C312.025 94.623 313.07 95.6658 313.07 96.9516V106.049C313.07 107.336 312.025 108.377 310.736 108.377Z" fill="#9810FA" fill-opacity="0.79"/>
<path d="M203.427 126.033H194.311C193.023 126.033 191.978 124.99 191.978 123.704V114.607C191.978 113.321 193.023 112.278 194.311 112.278H203.427C204.716 112.278 205.76 113.321 205.76 114.607V123.704C205.76 124.99 204.716 126.033 203.427 126.033Z" fill="white"/>
<path d="M221.312 126.033H212.196C210.908 126.033 209.863 124.99 209.863 123.704V114.607C209.863 113.321 210.908 112.278 212.196 112.278H221.312C222.6 112.278 223.645 113.321 223.645 114.607V123.704C223.645 124.99 222.6 126.033 221.312 126.033Z" fill="white"/>
<path d="M239.198 126.033H230.082C228.794 126.033 227.749 124.99 227.749 123.704V114.607C227.749 113.321 228.794 112.278 230.082 112.278H239.198C240.486 112.278 241.531 113.321 241.531 114.607V123.704C241.53 124.99 240.486 126.033 239.198 126.033Z" fill="white"/>
<path d="M257.082 126.033H247.967C246.678 126.033 245.633 124.99 245.633 123.704V114.607C245.633 113.321 246.678 112.278 247.967 112.278H257.082C258.371 112.278 259.416 113.321 259.416 114.607V123.704C259.414 124.99 258.371 126.033 257.082 126.033Z" fill="white"/>
<path d="M274.967 126.033H265.851C264.563 126.033 263.518 124.99 263.518 123.704V114.607C263.518 113.321 264.563 112.278 265.851 112.278H274.967C276.256 112.278 277.3 113.321 277.3 114.607V123.704C277.299 124.99 276.256 126.033 274.967 126.033Z" fill="white"/>
<path d="M292.852 126.033H283.736C282.448 126.033 281.403 124.99 281.403 123.704V114.607C281.403 113.321 282.448 112.278 283.736 112.278H292.852C294.14 112.278 295.185 113.321 295.185 114.607V123.704C295.185 124.99 294.14 126.033 292.852 126.033Z" fill="#9810FA" fill-opacity="0.79"/>
<path d="M310.736 126.033H301.621C300.332 126.033 299.287 124.99 299.287 123.704V114.607C299.287 113.321 300.332 112.278 301.621 112.278H310.736C312.025 112.278 313.07 113.321 313.07 114.607V123.704C313.07 124.99 312.025 126.033 310.736 126.033Z" fill="#9810FA" fill-opacity="0.79"/>
<path d="M203.427 143.687H194.311C193.023 143.687 191.978 142.644 191.978 141.358V132.261C191.978 130.975 193.023 129.932 194.311 129.932H203.427C204.716 129.932 205.76 130.975 205.76 132.261V141.358C205.76 142.644 204.716 143.687 203.427 143.687Z" fill="white"/>
<path d="M221.312 143.687H212.196C210.908 143.687 209.863 142.644 209.863 141.358V132.261C209.863 130.975 210.908 129.932 212.196 129.932H221.312C222.6 129.932 223.645 130.975 223.645 132.261V141.358C223.645 142.644 222.6 143.687 221.312 143.687Z" fill="#C782F9"/>
<path d="M239.198 143.687H230.082C228.794 143.687 227.749 142.644 227.749 141.358V132.261C227.749 130.975 228.794 129.932 230.082 129.932H239.198C240.486 129.932 241.531 130.975 241.531 132.261V141.358C241.53 142.644 240.486 143.687 239.198 143.687Z" fill="white"/>
<path d="M257.082 143.687H247.967C246.678 143.687 245.633 142.644 245.633 141.358V132.261C245.633 130.975 246.678 129.932 247.967 129.932H257.082C258.371 129.932 259.416 130.975 259.416 132.261V141.358C259.414 142.644 258.371 143.687 257.082 143.687Z" fill="white"/>
<path d="M274.967 143.687H265.851C264.563 143.687 263.518 142.644 263.518 141.358V132.261C263.518 130.975 264.563 129.932 265.851 129.932H274.967C276.256 129.932 277.3 130.975 277.3 132.261V141.358C277.299 142.644 276.256 143.687 274.967 143.687Z" fill="white"/>
<path d="M292.852 143.687H283.736C282.448 143.687 281.403 142.644 281.403 141.358V132.261C281.403 130.975 282.448 129.932 283.736 129.932H292.852C294.14 129.932 295.185 130.975 295.185 132.261V141.358C295.185 142.644 294.14 143.687 292.852 143.687Z" fill="#9810FA" fill-opacity="0.79"/>
<path d="M310.736 143.687H301.621C300.332 143.687 299.287 142.644 299.287 141.358V132.261C299.287 130.975 300.332 129.932 301.621 129.932H310.736C312.025 129.932 313.07 130.975 313.07 132.261V141.358C313.07 142.644 312.025 143.687 310.736 143.687Z" fill="#9810FA" fill-opacity="0.79"/>
<path d="M203.427 161.341H194.311C193.023 161.341 191.978 160.298 191.978 159.013V149.916C191.978 148.63 193.023 147.588 194.311 147.588H203.427C204.716 147.588 205.76 148.63 205.76 149.916V159.013C205.76 160.298 204.716 161.341 203.427 161.341Z" fill="white"/>
<path d="M221.312 161.341H212.196C210.908 161.341 209.863 160.298 209.863 159.013V149.916C209.863 148.63 210.908 147.588 212.196 147.588H221.312C222.6 147.588 223.645 148.63 223.645 149.916V159.013C223.645 160.298 222.6 161.341 221.312 161.341Z" fill="white"/>
<path d="M239.198 161.341H230.082C228.794 161.341 227.749 160.298 227.749 159.013V149.916C227.749 148.63 228.794 147.588 230.082 147.588H239.198C240.486 147.588 241.531 148.63 241.531 149.916V159.013C241.53 160.298 240.486 161.341 239.198 161.341Z" fill="white"/>
<path d="M257.082 161.341H247.967C246.678 161.341 245.633 160.298 245.633 159.013V149.916C245.633 148.63 246.678 147.588 247.967 147.588H257.082C258.371 147.588 259.416 148.63 259.416 149.916V159.013C259.414 160.298 258.371 161.341 257.082 161.341Z" fill="white"/>
<path d="M274.967 161.341H265.851C264.563 161.341 263.518 160.298 263.518 159.013V149.916C263.518 148.63 264.563 147.588 265.851 147.588H274.967C276.256 147.588 277.3 148.63 277.3 149.916V159.013C277.299 160.298 276.256 161.341 274.967 161.341Z" fill="white"/>
<path d="M292.852 161.341H283.736C282.448 161.341 281.403 160.298 281.403 159.013V149.916C281.403 148.63 282.448 147.588 283.736 147.588H292.852C294.14 147.588 295.185 148.63 295.185 149.916V159.013C295.185 160.298 294.14 161.341 292.852 161.341Z" fill="#9810FA" fill-opacity="0.79"/>
<path d="M310.736 161.341H301.621C300.332 161.341 299.287 160.298 299.287 159.013V149.916C299.287 148.63 300.332 147.588 301.621 147.588H310.736C312.025 147.588 313.07 148.63 313.07 149.916V159.013C313.07 160.298 312.025 161.341 310.736 161.341Z" fill="#9810FA" fill-opacity="0.79"/>
<path d="M203.427 178.995H194.311C193.023 178.995 191.978 177.952 191.978 176.666V167.569C191.978 166.283 193.023 165.24 194.311 165.24H203.427C204.716 165.24 205.76 166.283 205.76 167.569V176.666C205.76 177.953 204.716 178.995 203.427 178.995Z" fill="white"/>
<path d="M221.312 178.995H212.196C210.908 178.995 209.863 177.952 209.863 176.666V167.569C209.863 166.283 210.908 165.24 212.196 165.24H221.312C222.6 165.24 223.645 166.283 223.645 167.569V176.666C223.645 177.953 222.6 178.995 221.312 178.995Z" fill="white"/>
<path d="M239.198 178.995H230.082C228.794 178.995 227.749 177.952 227.749 176.666V167.569C227.749 166.283 228.794 165.24 230.082 165.24H239.198C240.486 165.24 241.531 166.283 241.531 167.569V176.666C241.53 177.953 240.486 178.995 239.198 178.995Z" fill="white"/>
<path d="M257.082 178.995H247.967C246.678 178.995 245.633 177.952 245.633 176.666V167.569C245.633 166.283 246.678 165.24 247.967 165.24H257.082C258.371 165.24 259.416 166.283 259.416 167.569V176.666C259.414 177.953 258.371 178.995 257.082 178.995Z" fill="white"/>
<path d="M274.967 178.995H265.851C264.563 178.995 263.518 177.952 263.518 176.666V167.569C263.518 166.283 264.563 165.24 265.851 165.24H274.967C276.256 165.24 277.3 166.283 277.3 167.569V176.666C277.299 177.953 276.256 178.995 274.967 178.995Z" fill="white"/>
<path d="M292.852 178.995H283.736C282.448 178.995 281.403 177.952 281.403 176.666V167.569C281.403 166.283 282.448 165.24 283.736 165.24H292.852C294.14 165.24 295.185 166.283 295.185 167.569V176.666C295.185 177.953 294.14 178.995 292.852 178.995Z" fill="#9810FA" fill-opacity="0.79"/>
<path d="M310.736 178.995H301.621C300.332 178.995 299.287 177.952 299.287 176.666V167.569C299.287 166.283 300.332 165.24 301.621 165.24H310.736C312.025 165.24 313.07 166.283 313.07 167.569V176.666C313.07 177.953 312.025 178.995 310.736 178.995Z" fill="#9810FA" fill-opacity="0.79"/>
<path d="M208.251 77.1093L204.949 73.8138L208.251 70.5183" stroke="white" stroke-width="0.913023" stroke-miterlimit="10" stroke-linecap="round"/>
<path d="M296.798 77.1093L300.1 73.8138L296.798 70.5183" stroke="white" stroke-width="0.913023" stroke-miterlimit="10" stroke-linecap="round"/>
<path d="M280.533 78.6545H224.515C222.38 78.6545 220.65 76.9277 220.65 74.7971C220.65 72.6665 222.38 70.9397 224.515 70.9397H280.533C282.668 70.9397 284.398 72.6665 284.398 74.7971C284.398 76.9277 282.668 78.6545 280.533 78.6545Z" fill="white"/>
<path d="M243.541 325.783H115.681C110.72 325.783 106.698 321.77 106.698 316.818V276.084C106.698 271.133 110.72 267.12 115.681 267.12H243.541C248.501 267.12 252.524 271.133 252.524 276.084V316.818C252.524 321.77 248.503 325.783 243.541 325.783Z" fill="#9810FA"/>
<path d="M235.259 286.338H123.963C122.135 286.338 120.652 284.858 120.652 283.034C120.652 281.209 122.135 279.729 123.963 279.729H235.259C237.087 279.729 238.57 281.209 238.57 283.034C238.57 284.86 237.087 286.338 235.259 286.338Z" fill="white"/>
<path d="M235.259 299.756H123.963C122.135 299.756 120.652 298.276 120.652 296.451C120.652 294.627 122.135 293.147 123.963 293.147H235.259C237.087 293.147 238.57 294.627 238.57 296.451C238.57 298.276 237.087 299.756 235.259 299.756Z" fill="white"/>
<path d="M163.25 313.173H123.963C122.135 313.173 120.652 311.693 120.652 309.868C120.652 308.044 122.135 306.564 123.963 306.564H163.25C165.078 306.564 166.561 308.044 166.561 309.868C166.561 311.693 165.08 313.173 163.25 313.173Z" fill="white"/>
<path opacity="0.3" d="M159.753 199.36H31.8935C26.9331 199.36 22.9106 203.375 22.9106 208.325V249.059C22.9106 254.009 26.9331 258.024 31.8935 258.024H159.753C164.715 258.024 168.736 254.011 168.736 249.059V208.325C168.736 203.375 164.715 199.36 159.753 199.36Z" fill="#92AAF7"/>
<path d="M154.971 253.266H27.1109C22.1492 253.266 18.128 249.253 18.128 244.302V203.568C18.128 198.616 22.1492 194.603 27.1109 194.603H154.971C159.931 194.603 163.954 198.616 163.954 203.568V244.302C163.954 249.253 159.932 253.266 154.971 253.266Z" fill="#FFD1BA"/>
<path d="M108.036 213.823H35.3929C33.5646 213.823 32.0817 212.343 32.0817 210.519C32.0817 208.694 33.5646 207.214 35.3929 207.214H108.036C109.865 207.214 111.347 208.694 111.347 210.519C111.347 212.343 109.864 213.823 108.036 213.823Z" fill="white"/>
<path d="M108.036 227.239H35.3929C33.5646 227.239 32.0817 225.759 32.0817 223.935C32.0817 222.11 33.5646 220.63 35.3929 220.63H108.036C109.865 220.63 111.347 222.11 111.347 223.935C111.347 225.76 109.864 227.239 108.036 227.239Z" fill="white"/>
<path d="M74.6797 240.656H35.3929C33.5646 240.656 32.0817 239.176 32.0817 237.352C32.0817 235.527 33.5646 234.047 35.3929 234.047H74.6797C76.5079 234.047 77.9909 235.527 77.9909 237.352C77.9909 239.176 76.5092 240.656 74.6797 240.656Z" fill="white"/>
<path d="M136.095 211.78C140.933 211.78 144.485 216.654 144.485 220.914C144.485 231.261 148.299 233.853 148.299 233.853L123.892 233.834C123.892 233.834 127.706 231.26 127.706 220.913C127.706 216.654 131.257 211.78 136.095 211.78ZM136.095 209.496C129.802 209.496 125.417 215.514 125.417 220.913C125.417 229.089 122.886 231.674 122.569 231.966C121.696 232.484 121.341 233.475 121.602 234.463C121.866 235.464 122.85 236.116 123.889 236.118L148.295 236.137C149.332 236.137 150.315 235.489 150.582 234.488C150.845 233.503 150.495 232.511 149.624 231.989C149.308 231.698 146.771 229.101 146.771 220.913C146.774 215.514 142.388 209.496 136.095 209.496Z" fill="white"/>
<path d="M139.909 236.895C138.93 237.901 137.559 238.526 136.042 238.526C134.527 238.526 133.157 237.902 132.178 236.898" stroke="white" stroke-width="1.95684" stroke-miterlimit="10" stroke-linecap="round" stroke-linejoin="round"/>
<path d="M133.045 210.257C133.045 208.627 134.58 207.213 136.096 207.213C137.612 207.213 139.147 208.63 139.147 210.257" stroke="white" stroke-width="1.95684" stroke-miterlimit="10" stroke-linecap="round" stroke-linejoin="round"/>
<path d="M146.622 228.525H125.569C124.892 228.525 124.345 228.596 124.345 229.667C124.345 230.738 124.892 230.808 125.569 230.808H146.622C147.298 230.808 147.846 230.738 147.846 229.667C147.846 228.597 147.298 228.525 146.622 228.525Z" fill="white"/>
</g>
<defs>
<clipPath id="clip0_92_2389">
<rect width="347.094" height="401.087" fill="white"/>
</clipPath>
</defs>
</svg>
