<svg width="384" height="417" viewBox="0 0 384 417" fill="none" xmlns="http://www.w3.org/2000/svg">
<g clip-path="url(#clip0_92_2318)">
<path d="M191.728 348.69C284.006 348.69 358.812 273.839 358.812 181.507C358.812 89.1746 284.006 14.3245 191.728 14.3245C99.4508 14.3245 24.6451 89.1746 24.6451 181.507C24.6451 273.839 99.4508 348.69 191.728 348.69Z" fill="white"/>
<path d="M251.616 109.922H150.283C142.581 109.922 136.336 116.171 136.336 123.877V125.59V130.344V132.056V338.281V339.995V344.748V346.462C136.336 354.167 142.581 360.416 150.283 360.416H251.616C259.317 360.416 265.564 354.167 265.564 346.462V344.748V339.995V338.281V132.055V130.342V125.588V123.875C265.564 116.171 259.317 109.922 251.616 109.922Z" fill="#514E78"/>
<path d="M235.08 243.951C235.08 243.951 288.284 263.971 295.154 291.333C302.022 318.697 302.022 318.697 302.022 318.697L308.03 398.934L253.938 409.762C253.938 409.762 223.029 360.79 223.029 352.2C223.029 343.607 232.473 333.298 232.473 333.298L235.08 243.951Z" fill="#FFD1BA"/>
<path d="M148.378 243.951C148.378 243.951 95.1738 263.971 88.3046 291.333C81.4354 318.697 81.4354 318.697 81.4354 318.697L75.4253 398.934L129.519 409.762C129.519 409.762 160.43 360.79 160.43 352.2C160.43 343.607 150.985 333.298 150.985 333.298L148.378 243.951Z" fill="#FFD1BA"/>
<path d="M242.394 108.741H141.062C133.36 108.741 127.116 114.991 127.116 122.695V124.409V337.101V338.814C127.116 346.521 133.36 352.77 141.062 352.77H242.395C250.096 352.77 256.342 346.521 256.342 338.814V337.101V124.409V122.695C256.341 114.991 250.095 108.741 242.394 108.741Z" fill="#3C2A34"/>
<path d="M242.394 102.521H141.062C133.36 102.521 127.116 108.769 127.116 116.475V118.187V330.879V332.593C127.116 340.3 133.36 346.548 141.062 346.548H242.395C250.096 346.548 256.342 340.3 256.342 332.593V330.879V118.187V116.475C256.341 108.77 250.095 102.521 242.394 102.521Z" fill="#383A45"/>
<path d="M243.139 120.162H140.319V315.38H243.139V120.162Z" fill="white"/>
<path d="M243.139 120.521H140.319V127.266H243.139V120.521Z" fill="#C0B1BC"/>
<path d="M216.137 111.264C216.137 112.673 214.797 113.817 213.143 113.817H170.313C168.66 113.817 167.319 112.672 167.319 111.264C167.319 109.854 168.659 108.711 170.313 108.711H213.143C214.797 108.711 216.137 109.854 216.137 111.264Z" fill="#31333E"/>
<path d="M216.137 112.147C216.137 113.557 214.797 114.7 213.143 114.7H170.313C168.66 114.7 167.319 113.556 167.319 112.147C167.319 110.737 168.659 109.595 170.313 109.595H213.143C214.797 109.595 216.137 110.738 216.137 112.147Z" fill="#3F4E55"/>
<path d="M212.533 328.981C212.533 331.512 210.483 333.563 207.954 333.563H175.045C172.517 333.563 170.466 331.512 170.466 328.981C170.466 326.451 172.517 324.398 175.045 324.398H207.954C210.483 324.398 212.533 326.451 212.533 328.981Z" fill="#3F4D54"/>
<path d="M235.889 237.162C235.889 253.651 222.529 267.018 206.05 267.018C189.57 267.018 176.211 253.651 176.211 237.162C176.211 220.672 189.57 207.305 206.05 207.305C222.529 207.305 235.889 220.672 235.889 237.162Z" fill="#FFD6D6"/>
<mask id="mask0_92_2318" style="mask-type:luminance" maskUnits="userSpaceOnUse" x="176" y="207" width="60" height="61">
<path d="M235.889 237.162C235.889 253.651 222.529 267.018 206.05 267.018C189.57 267.018 176.211 253.651 176.211 237.162C176.211 220.672 189.57 207.305 206.05 207.305C222.529 207.305 235.889 220.672 235.889 237.162Z" fill="white"/>
</mask>
<g mask="url(#mask0_92_2318)">
<path d="M219.605 252.917C207.498 248.567 212.855 243.422 212.855 243.422H212.854C215.684 240.989 217.519 237.083 217.519 232.673C217.519 225.296 212.383 219.315 206.049 219.315C199.715 219.315 194.581 225.297 194.581 232.673C194.581 237.083 196.415 240.989 199.245 243.421L199.244 243.422C199.244 243.422 204.603 248.567 192.494 252.917C184.171 255.907 186.199 267.421 186.199 267.421H206.05H225.902C225.902 267.421 227.928 255.907 219.605 252.917Z" fill="#9810FA"/>
</g>
<path d="M206.018 171.868C206.018 188.358 192.659 201.725 176.178 201.725C159.7 201.725 146.34 188.359 146.34 171.868C146.34 155.378 159.7 142.012 176.178 142.012C192.659 142.012 206.018 155.379 206.018 171.868Z" fill="#FFD6D6"/>
<mask id="mask1_92_2318" style="mask-type:luminance" maskUnits="userSpaceOnUse" x="146" y="142" width="61" height="60">
<path d="M206.018 171.868C206.018 188.358 192.659 201.725 176.178 201.725C159.7 201.725 146.34 188.359 146.34 171.868C146.34 155.378 159.7 142.012 176.178 142.012C192.659 142.012 206.018 155.379 206.018 171.868Z" fill="white"/>
</mask>
<g mask="url(#mask1_92_2318)">
<path d="M192.373 178.31C192.373 182.554 188.935 185.995 184.693 185.995H167.665C163.422 185.995 159.984 182.554 159.984 178.31V167.459C159.984 163.215 163.422 159.774 167.665 159.774H184.693C188.935 159.774 192.373 163.215 192.373 167.459V178.31Z" fill="#C782F9"/>
<path d="M179.598 190.911C179.598 192.801 178.066 194.331 176.181 194.331C174.292 194.331 172.762 192.801 172.762 190.911V186.32C172.762 184.431 174.293 182.899 176.181 182.899C178.067 182.899 179.598 184.431 179.598 186.32V190.911Z" fill="#C782F9"/>
<path d="M172.611 173.372C172.611 176.144 170.364 178.393 167.593 178.393C164.82 178.393 162.574 176.143 162.574 173.372C162.574 170.597 164.82 168.35 167.593 168.35C170.364 168.349 172.611 170.596 172.611 173.372Z" fill="white"/>
<path d="M170.101 173.372C170.101 174.757 168.978 175.881 167.592 175.881C166.205 175.881 165.081 174.757 165.081 173.372C165.081 171.983 166.205 170.861 167.592 170.861C168.979 170.86 170.101 171.983 170.101 173.372Z" fill="#C782F9"/>
<path d="M189.784 173.372C189.784 176.144 187.539 178.393 184.768 178.393C181.995 178.393 179.748 176.143 179.748 173.372C179.748 170.597 181.995 168.35 184.768 168.35C187.539 168.349 189.784 170.596 189.784 173.372Z" fill="white"/>
<path d="M187.276 173.372C187.276 174.757 186.152 175.881 184.767 175.881C183.38 175.881 182.257 174.757 182.257 173.372C182.257 171.983 183.38 170.861 184.767 170.861C186.153 170.86 187.276 171.983 187.276 173.372Z" fill="#C782F9"/>
<path d="M160.744 170.435H158.413V169.071C158.413 168.129 157.649 167.364 156.708 167.364C155.764 167.364 155 168.128 155 169.071V174.602C155 175.545 155.764 176.31 156.708 176.31C157.649 176.31 158.413 175.545 158.413 174.602V173.239H160.744C161.519 173.239 162.147 172.611 162.147 171.837C162.147 171.063 161.519 170.435 160.744 170.435Z" fill="#C782F9"/>
<path d="M195.651 167.364C194.708 167.364 193.945 168.128 193.945 169.071V170.435H191.613C190.839 170.435 190.211 171.062 190.211 171.837C190.211 172.611 190.839 173.239 191.613 173.239H193.945V174.602C193.945 175.545 194.708 176.31 195.651 176.31C196.594 176.31 197.357 175.545 197.357 174.602V169.071C197.357 168.129 196.594 167.364 195.651 167.364Z" fill="#C782F9"/>
<path d="M178.875 157.364H177.213V153.643C178.292 153.227 179.061 152.186 179.061 150.961C179.061 149.369 177.771 148.079 176.181 148.079C174.589 148.079 173.299 149.369 173.299 150.961C173.299 152.186 174.068 153.227 175.146 153.643V157.364H173.485C172.277 157.364 171.298 158.345 171.298 159.553C171.298 160.761 172.277 161.741 173.485 161.741H178.876C180.085 161.741 181.062 160.761 181.062 159.553C181.06 158.345 180.084 157.364 178.875 157.364Z" fill="#C782F9"/>
<path d="M192.584 199.284C192.584 203.222 189.395 206.415 185.458 206.415H166.9C162.963 206.415 159.772 203.222 159.772 199.284V197.463C159.772 193.524 162.963 190.331 166.9 190.331H185.458C189.395 190.331 192.584 193.524 192.584 197.463V199.284Z" fill="#C782F9"/>
</g>
<path d="M130.685 146.302C134.099 142.986 136.223 138.35 136.223 133.214V112.967C136.223 102.893 128.062 94.7275 117.994 94.7275H47.5588C37.4919 94.7275 29.3297 102.893 29.3297 112.967V133.214C29.3297 143.287 37.4919 151.453 47.5588 151.453H113.594L140.393 158.368L130.685 146.302Z" fill="#C782F9"/>
<path d="M352.006 163.338H260.435C250.369 163.338 242.207 171.503 242.207 181.577V201.824C242.207 206.96 244.333 211.597 247.746 214.912L238.039 226.979L264.837 220.064H352.006C362.073 220.064 370.236 211.897 370.236 201.824V181.577C370.234 171.503 362.071 163.338 352.006 163.338Z" fill="#9810FA"/>
<path d="M153.018 202.004L135.83 206.143C134.093 197.881 126.768 191.678 117.995 191.678H26.4242C16.3572 191.678 8.19675 199.843 8.19675 209.918V230.165C8.19675 240.238 16.3572 248.405 26.4242 248.405H117.995C128.062 248.405 136.224 240.238 136.224 230.165V222.201L153.018 202.004Z" fill="#C782F9"/>
<path d="M139.335 356.829C137.619 360.132 132.895 361.075 128.786 358.935L118.554 353.608C114.444 351.468 112.506 347.056 114.223 343.754L150.003 274.952C154.695 266.991 160.699 262.525 164.809 264.664L175.04 269.991C179.15 272.131 179.024 281.884 174.078 290.022L139.335 356.829Z" fill="#FFD1BA"/>
<path d="M132.093 398.933H75.4253V416.513H132.093V398.933Z" fill="#FFD1BA"/>
<path d="M167.476 301.639C167.476 301.639 162.094 308.537 160.43 326.857C158.763 345.176 165.95 347.514 152.055 371.611L132.094 342.749C132.094 342.749 152.197 297.432 167.476 301.639Z" fill="#FFD1BA"/>
<path d="M244.123 356.829C245.839 360.132 250.563 361.075 254.673 358.935L264.904 353.608C269.013 351.468 270.953 347.056 269.235 343.754L233.456 274.952C228.763 266.991 222.758 262.525 218.651 264.664L208.418 269.991C204.309 272.131 204.434 281.884 209.38 290.022L244.123 356.829Z" fill="#FFD1BA"/>
<path d="M308.03 398.933H251.363V416.513H308.03V398.933Z" fill="#FFD1BA"/>
<path d="M215.982 301.639C215.982 301.639 221.363 308.537 223.03 326.857C224.693 345.176 217.509 347.514 231.404 371.611L251.364 342.749C251.364 342.749 231.26 297.432 215.982 301.639Z" fill="#FFD1BA"/>
<path d="M231.19 281.335C232.654 284.53 231.252 288.31 228.057 289.776L223.309 291.954C220.114 293.418 216.338 292.014 214.874 288.818L210.123 278.449C208.658 275.253 210.062 271.473 213.255 270.009L218.005 267.83C221.198 266.365 224.975 267.769 226.439 270.964L231.19 281.335Z" fill="#F69D81"/>
<path d="M152.524 281.335C151.06 284.53 152.463 288.31 155.657 289.776L160.406 291.954C163.599 293.418 167.378 292.014 168.841 288.818L173.592 278.449C175.055 275.253 173.652 271.473 170.46 270.009L165.71 267.83C162.516 266.365 158.738 267.769 157.274 270.964L152.524 281.335Z" fill="#F69D81"/>
<path d="M38.9363 110.886C38.9363 112.235 40.0294 113.33 41.379 113.33H116.562C117.912 113.33 119.005 112.235 119.005 110.886C119.005 109.536 117.912 108.443 116.562 108.443H41.3781C40.0294 108.443 38.9363 109.536 38.9363 110.886Z" fill="#F5EFDB"/>
<path d="M119.003 124.116C119.003 122.766 117.91 121.673 116.561 121.673H41.3781C40.0286 121.673 38.9355 122.766 38.9355 124.116C38.9355 125.465 40.0286 126.559 41.3781 126.559H116.562C117.91 126.558 119.003 125.465 119.003 124.116Z" fill="#F5EFDB"/>
<path d="M86.2441 136.242C86.2441 134.893 85.1509 133.798 83.8014 133.798H41.3781C40.0286 133.798 38.9355 134.892 38.9355 136.242C38.9355 137.591 40.0286 138.685 41.3781 138.685H83.8014C85.1509 138.685 86.2441 137.591 86.2441 136.242Z" fill="#F5EFDB"/>
<path d="M354.297 179C354.297 180.349 353.204 181.443 351.855 181.443H262.121C260.774 181.443 259.68 180.349 259.68 179C259.68 177.65 260.774 176.557 262.121 176.557H351.855C353.204 176.557 354.297 177.65 354.297 179Z" fill="#F5EFDB"/>
<path d="M298.744 192.229C298.744 190.881 297.652 189.787 296.303 189.787H262.121C260.773 189.787 259.679 190.881 259.679 192.229C259.679 193.579 260.773 194.673 262.121 194.673H296.303C297.651 194.673 298.744 193.579 298.744 192.229Z" fill="#F5EFDB"/>
<path d="M346.053 192.229C346.053 190.881 344.959 189.787 343.611 189.787H309.428C308.081 189.787 306.988 190.881 306.988 192.229C306.988 193.579 308.08 194.673 309.428 194.673H343.611C344.96 194.673 346.053 193.579 346.053 192.229Z" fill="#F5EFDB"/>
<path d="M321.537 204.355C321.537 203.005 320.444 201.911 319.096 201.911H262.121C260.773 201.911 259.679 203.004 259.679 204.355C259.679 205.706 260.773 206.799 262.121 206.799H319.096C320.444 206.799 321.537 205.706 321.537 204.355Z" fill="#F5EFDB"/>
<path d="M119.003 207.385C119.003 208.734 117.91 209.828 116.561 209.828H26.8296C25.4801 209.828 24.387 208.734 24.387 207.385C24.387 206.035 25.4793 204.941 26.8296 204.941H116.562C117.91 204.941 119.003 206.035 119.003 207.385Z" fill="#F5EFDB"/>
<path d="M119.003 220.615C119.003 221.964 117.91 223.058 116.561 223.058H26.8296C25.4801 223.058 24.387 221.965 24.387 220.615C24.387 219.264 25.4793 218.171 26.8296 218.171H116.562C117.91 218.171 119.003 219.264 119.003 220.615Z" fill="#F5EFDB"/>
<path d="M86.2441 232.742C86.2441 231.39 85.1509 230.296 83.8014 230.296H26.8296C25.4801 230.296 24.387 231.39 24.387 232.742C24.387 234.09 25.4793 235.183 26.8296 235.183H83.8014C85.1509 235.182 86.2441 234.09 86.2441 232.742Z" fill="#F5EFDB"/>
</g>
<defs>
<clipPath id="clip0_92_2318">
<rect width="383.457" height="416.513" fill="white"/>
</clipPath>
</defs>
</svg>
