<svg width="402" height="479" viewBox="0 0 402 479" fill="none" xmlns="http://www.w3.org/2000/svg">
<rect width="401.087" height="473.811" rx="22.0377" fill="#F9F3FE"/>
<path d="M202.344 381.746C294.621 381.746 369.427 306.896 369.427 214.564C369.427 122.231 294.621 47.3811 202.344 47.3811C110.066 47.3811 35.2604 122.231 35.2604 214.564C35.2604 306.896 110.066 381.746 202.344 381.746Z" fill="white"/>
<g clip-path="url(#clip0_94_2924)">
<path d="M92.5585 464.105V103.367C92.5585 99.8318 95.4071 96.9661 98.9209 96.9661H307.675C311.189 96.9661 314.038 99.8318 314.038 103.367V464.105C314.038 467.64 311.189 470.506 307.675 470.506H98.9209C95.4071 470.505 92.5585 467.64 92.5585 464.105Z" fill="white"/>
<path d="M296.809 104.336H109.826C104.304 104.336 99.8264 108.813 99.8264 114.336V438.783C99.8264 444.306 104.304 448.783 109.826 448.783H296.809C302.332 448.783 306.809 444.306 306.809 438.783V114.336C306.809 108.813 302.332 104.336 296.809 104.336Z" fill="#C782F9" fill-opacity="0.67"/>
<path d="M289.168 431.909L289.168 121.21L116.844 121.21L116.844 431.909L289.168 431.909Z" fill="white"/>
<path d="M154.78 389.339C162.732 389.339 169.178 382.879 169.178 374.911C169.178 366.943 162.732 360.483 154.78 360.483C146.829 360.483 140.383 366.943 140.383 374.911C140.383 382.879 146.829 389.339 154.78 389.339Z" fill="#E6D4D4"/>
<path d="M156.531 387.779C164.483 387.779 170.929 381.32 170.929 373.351C170.929 365.383 164.483 358.924 156.531 358.924C148.58 358.924 142.134 365.383 142.134 373.351C142.134 381.32 148.58 387.779 156.531 387.779Z" fill="#C782F9"/>
<path d="M199.902 389.339C207.854 389.339 214.3 382.879 214.3 374.911C214.3 366.943 207.854 360.483 199.902 360.483C191.951 360.483 185.505 366.943 185.505 374.911C185.505 382.879 191.951 389.339 199.902 389.339Z" fill="#E6D4D4"/>
<path d="M201.654 387.779C209.605 387.779 216.051 381.32 216.051 373.351C216.051 365.383 209.605 358.924 201.654 358.924C193.702 358.924 187.256 365.383 187.256 373.351C187.256 381.32 193.702 387.779 201.654 387.779Z" fill="#9810FA"/>
<path d="M154.78 427.082C162.732 427.082 169.178 420.623 169.178 412.654C169.178 404.686 162.732 398.227 154.78 398.227C146.829 398.227 140.383 404.686 140.383 412.654C140.383 420.623 146.829 427.082 154.78 427.082Z" fill="#E6D4D4"/>
<path d="M156.531 425.523C164.483 425.523 170.929 419.063 170.929 411.095C170.929 403.127 164.483 396.667 156.531 396.667C148.58 396.667 142.134 403.127 142.134 411.095C142.134 419.063 148.58 425.523 156.531 425.523Z" fill="#C782F9"/>
<path d="M199.902 427.082C207.854 427.082 214.3 420.623 214.3 412.654C214.3 404.686 207.854 398.227 199.902 398.227C191.951 398.227 185.505 404.686 185.505 412.654C185.505 420.623 191.951 427.082 199.902 427.082Z" fill="#E6D4D4"/>
<path d="M201.654 425.523C209.605 425.523 216.051 419.063 216.051 411.095C216.051 403.127 209.605 396.667 201.654 396.667C193.702 396.667 187.256 403.127 187.256 411.095C187.256 419.063 193.702 425.523 201.654 425.523Z" fill="#C782F9"/>
<path d="M266.784 349.082H202.449C199.065 349.082 196.322 346.334 196.322 342.943V276.917C196.322 273.526 199.065 270.777 202.449 270.777H266.784C270.168 270.777 272.911 273.526 272.911 276.917V342.943C272.911 346.334 270.168 349.082 266.784 349.082Z" fill="#EBE2DF"/>
<path d="M279.121 263.517H202.532V341.822H279.121V263.517Z" fill="#FFD1BA"/>
<path d="M279.121 263.517H202.532V275.444H279.121V263.517Z" fill="#9810FA"/>
<path d="M224.244 294.846H224.133L217.86 298.239L216.917 294.511L224.799 290.283H228.962V326.441H224.244V294.846H224.244Z" fill="white"/>
<path d="M243.298 320.822C244.686 321.712 247.905 323.102 251.291 323.102C257.564 323.102 259.507 319.098 259.451 316.093C259.395 311.032 254.843 308.862 250.125 308.862H247.405V305.191H250.125C253.678 305.191 258.174 303.357 258.174 299.072C258.174 296.18 256.342 293.621 251.846 293.621C248.96 293.621 246.185 294.901 244.63 296.012L243.353 292.452C245.24 291.062 248.904 289.671 252.79 289.671C259.895 289.671 263.115 293.899 263.115 298.293C263.115 302.021 260.894 305.191 256.453 306.804V306.917C260.894 307.807 264.502 311.143 264.502 316.206C264.502 321.99 260.006 327.052 251.347 327.052C247.294 327.052 243.742 325.772 241.965 324.604L243.298 320.822Z" fill="white"/>
<path d="M210.553 271.295C211.768 271.295 212.753 270.309 212.753 269.091C212.753 267.874 211.768 266.887 210.553 266.887C209.339 266.887 208.354 267.874 208.354 269.091C208.354 270.309 209.339 271.295 210.553 271.295Z" fill="white"/>
<path d="M270.726 271.295C271.94 271.295 272.925 270.309 272.925 269.091C272.925 267.874 271.94 266.887 270.726 266.887C269.511 266.887 268.526 267.874 268.526 269.091C268.526 270.309 269.511 271.295 270.726 271.295Z" fill="white"/>
<path d="M160.707 216.1C179.147 216.1 194.095 201.12 194.095 182.642C194.095 164.164 179.147 149.184 160.707 149.184C142.268 149.184 127.32 164.164 127.32 182.642C127.32 201.12 142.268 216.1 160.707 216.1Z" fill="#D4D4D4"/>
<path d="M155.821 214.672C174.261 214.672 189.209 199.692 189.209 181.214C189.209 162.735 174.261 147.756 155.821 147.756C137.382 147.756 122.434 162.735 122.434 181.214C122.434 199.692 137.382 214.672 155.821 214.672Z" fill="#FFD1BA"/>
<path d="M167.359 199.767C160.804 197.241 160.3 193.501 160.359 186.071C164.849 183.884 168.024 178.56 168.024 172.328C168.024 164.146 162.561 157.514 155.821 157.514C149.082 157.514 143.618 164.147 143.618 172.328C143.618 178.56 146.793 183.884 151.283 186.071C151.342 193.501 150.838 197.241 144.283 199.767C139.694 201.536 137.383 203.964 136.254 205.838C141.7 209.952 148.475 212.394 155.821 212.394C163.167 212.394 169.942 209.953 175.388 205.839C174.259 203.964 171.948 201.536 167.359 199.767Z" fill="white"/>
<path d="M260.298 161.629H206.882C204.992 161.629 203.459 160.093 203.459 158.199V152.41C203.459 150.515 204.992 148.98 206.882 148.98H260.298C262.188 148.98 263.72 150.515 263.72 152.41V158.199C263.72 160.093 262.188 161.629 260.298 161.629Z" fill="#C782F9"/>
<path d="M260.298 193.693H206.882C204.992 193.693 203.459 192.157 203.459 190.263V184.474C203.459 182.58 204.992 181.044 206.882 181.044H260.298C262.188 181.044 263.72 182.579 263.72 184.474V190.263C263.72 192.157 262.188 193.693 260.298 193.693Z" fill="#C782F9"/>
<path d="M184.123 278.657H130.707C128.817 278.657 127.285 277.121 127.285 275.227V269.438C127.285 267.544 128.817 266.008 130.707 266.008H184.123C186.013 266.008 187.546 267.544 187.546 269.438V275.227C187.545 277.121 186.013 278.657 184.123 278.657Z" fill="#C782F9"/>
<path d="M184.123 308.767H130.707C128.817 308.767 127.285 307.232 127.285 305.337V299.548C127.285 297.654 128.817 296.118 130.707 296.118H184.123C186.013 296.118 187.546 297.654 187.546 299.548V305.337C187.545 307.232 186.013 308.767 184.123 308.767Z" fill="#C782F9"/>
<path d="M184.123 338.877H130.707C128.817 338.877 127.285 337.341 127.285 335.447V329.657C127.285 327.763 128.817 326.228 130.707 326.228H184.123C186.013 326.228 187.546 327.763 187.546 329.657V335.447C187.545 337.341 186.013 338.877 184.123 338.877Z" fill="#C782F9"/>
<path d="M289.195 121.211H116.836V134.708H289.195V121.211Z" fill="#9810FA"/>
<path d="M264.04 128.799H256.532V130.471H264.04V128.799Z" fill="white"/>
<path d="M274.437 130.094L269.128 124.774L267.948 125.957L273.257 131.277L274.437 130.094Z" fill="white"/>
<path d="M269.132 131.277L274.441 125.957L273.261 124.775L267.953 130.095L269.132 131.277Z" fill="white"/>
<path d="M277.551 124.419V131.278H284.395V124.419H277.551ZM283.069 129.95H278.877V125.748H283.069V129.95Z" fill="white"/>
<path d="M142.469 129.587C143.304 128.75 143.304 127.392 142.469 126.555C141.633 125.718 140.279 125.718 139.444 126.555C138.609 127.392 138.609 128.75 139.444 129.587C140.279 130.424 141.633 130.424 142.469 129.587Z" fill="white"/>
<path d="M133.582 129.587C134.417 128.75 134.417 127.392 133.582 126.555C132.746 125.718 131.392 125.718 130.557 126.555C129.722 127.392 129.722 128.75 130.557 129.587C131.392 130.424 132.746 130.424 133.582 129.587Z" fill="white"/>
<path d="M124.695 129.587C125.53 128.75 125.53 127.392 124.695 126.555C123.859 125.718 122.505 125.718 121.67 126.555C120.835 127.392 120.835 128.75 121.67 129.587C122.505 130.424 123.859 130.424 124.695 129.587Z" fill="white"/>
<path d="M269.792 245.532H198.696C192.111 245.532 186.773 240.183 186.773 233.584C186.773 226.985 192.111 221.636 198.696 221.636H269.792C276.377 221.636 281.715 226.985 281.715 233.584C281.715 240.183 276.377 245.532 269.792 245.532Z" fill="#D4D4D4"/>
<path d="M274.594 243.099H187.933C185.646 243.099 183.792 241.241 183.792 238.949V223.352C183.792 221.06 185.646 219.202 187.933 219.202H274.594C276.881 219.202 278.734 221.06 278.734 223.352V238.949C278.734 241.241 276.881 243.099 274.594 243.099Z" fill="#9810FA"/>
<path d="M232.93 224.801L234.432 229.433C234.492 229.618 234.663 229.743 234.857 229.743H239.718C240.15 229.743 240.33 230.298 239.98 230.553L236.048 233.416C235.891 233.53 235.826 233.732 235.886 233.916L237.388 238.549C237.522 238.961 237.051 239.304 236.7 239.049L232.768 236.186C232.612 236.072 232.4 236.072 232.243 236.186L228.311 239.049C227.961 239.304 227.49 238.961 227.623 238.549L229.125 233.916C229.185 233.732 229.12 233.53 228.963 233.416L225.031 230.553C224.681 230.298 224.861 229.743 225.294 229.743H230.154C230.348 229.743 230.519 229.618 230.579 229.433L232.081 224.801C232.214 224.389 232.796 224.389 232.93 224.801Z" fill="#D4D4D4"/>
<path d="M211.347 224.801L212.849 229.433C212.909 229.618 213.081 229.743 213.274 229.743H218.135C218.567 229.743 218.747 230.298 218.397 230.553L214.465 233.416C214.308 233.53 214.243 233.732 214.303 233.916L215.805 238.549C215.939 238.961 215.468 239.304 215.118 239.049L211.185 236.186C211.029 236.072 210.817 236.072 210.66 236.186L206.728 239.049C206.378 239.304 205.907 238.961 206.041 238.549L207.543 233.916C207.602 233.732 207.537 233.53 207.38 233.416L203.448 230.553C203.098 230.298 203.278 229.743 203.711 229.743H208.571C208.765 229.743 208.936 229.618 208.996 229.433L210.498 224.801C210.631 224.389 211.213 224.389 211.347 224.801Z" fill="#D4D4D4"/>
<path d="M254.513 224.801L256.015 229.433C256.075 229.618 256.246 229.743 256.44 229.743H261.3C261.733 229.743 261.913 230.298 261.563 230.553L257.63 233.416C257.474 233.53 257.408 233.732 257.468 233.916L258.97 238.549C259.104 238.961 258.633 239.304 258.283 239.049L254.35 236.186C254.194 236.072 253.982 236.072 253.825 236.186L249.893 239.049C249.543 239.304 249.072 238.961 249.206 238.549L250.708 233.916C250.767 233.732 250.702 233.53 250.545 233.416L246.613 230.553C246.263 230.298 246.443 229.743 246.876 229.743H251.736C251.93 229.743 252.101 229.618 252.161 229.433L253.663 224.801C253.797 224.389 254.379 224.389 254.513 224.801Z" fill="#D4D4D4"/>
<path d="M231.688 224.137L233.19 228.769C233.25 228.954 233.421 229.079 233.615 229.079H238.475C238.908 229.079 239.088 229.633 238.738 229.888L234.806 232.751C234.649 232.865 234.583 233.067 234.643 233.252L236.145 237.884C236.279 238.297 235.808 238.64 235.458 238.385L231.526 235.522C231.369 235.408 231.157 235.408 231.001 235.522L227.068 238.385C226.718 238.64 226.247 238.297 226.381 237.884L227.883 233.252C227.943 233.067 227.877 232.865 227.721 232.751L223.789 229.888C223.438 229.633 223.618 229.079 224.051 229.079H228.912C229.105 229.079 229.277 228.954 229.336 228.769L230.839 224.137C230.972 223.725 231.554 223.725 231.688 224.137Z" fill="white"/>
<path d="M210.105 224.137L211.607 228.769C211.667 228.954 211.839 229.079 212.032 229.079H216.893C217.325 229.079 217.505 229.633 217.155 229.888L213.223 232.751C213.066 232.865 213.001 233.067 213.061 233.252L214.563 237.884C214.697 238.297 214.226 238.64 213.876 238.385L209.943 235.522C209.787 235.408 209.575 235.408 209.418 235.522L205.486 238.385C205.136 238.64 204.665 238.297 204.799 237.884L206.301 233.252C206.36 233.067 206.295 232.865 206.138 232.751L202.206 229.888C201.856 229.633 202.036 229.079 202.469 229.079H207.329C207.523 229.079 207.694 228.954 207.754 228.769L209.256 224.137C209.389 223.725 209.972 223.725 210.105 224.137Z" fill="white"/>
<path d="M253.271 224.137L254.773 228.769C254.833 228.954 255.004 229.079 255.198 229.079H260.058C260.491 229.079 260.671 229.633 260.321 229.888L256.388 232.751C256.232 232.865 256.166 233.067 256.226 233.252L257.728 237.884C257.862 238.297 257.391 238.64 257.041 238.385L253.109 235.522C252.952 235.408 252.74 235.408 252.584 235.522L248.651 238.385C248.301 238.64 247.83 238.297 247.964 237.884L249.466 233.252C249.526 233.067 249.46 232.865 249.304 232.751L245.372 229.888C245.021 229.633 245.201 229.079 245.634 229.079H250.495C250.688 229.079 250.86 228.954 250.919 228.769L252.422 224.137C252.555 223.725 253.137 223.725 253.271 224.137Z" fill="white"/>
</g>
<defs>
<clipPath id="clip0_94_2924">
<rect x="66.1132" y="96.9661" width="277.675" height="381.253" rx="20" fill="white"/>
</clipPath>
</defs>
</svg>
