<svg width="48" height="48" viewBox="0 0 48 48" fill="none" xmlns="http://www.w3.org/2000/svg">
<path d="M43.4862 24.6621L25.4862 4.66205C24.7282 3.81805 23.2722 3.81805 22.5142 4.66205L4.51423 24.6621C4.25559 24.9495 4.08583 25.3058 4.02548 25.6877C3.96514 26.0696 4.01681 26.4609 4.17423 26.8141C4.49423 27.5361 5.21023 28.0001 6.00023 28.0001H10.0002V42.0001C10.0002 42.5305 10.2109 43.0392 10.586 43.4143C10.9611 43.7893 11.4698 44.0001 12.0002 44.0001H36.0002C36.5307 44.0001 37.0394 43.7893 37.4144 43.4143C37.7895 43.0392 38.0002 42.5305 38.0002 42.0001V28.0001H42.0002C42.3876 28.0017 42.767 27.8906 43.0923 27.6803C43.4176 27.4701 43.6747 27.1697 43.8322 26.8158C43.9897 26.462 44.0409 26.0699 43.9795 25.6875C43.918 25.3051 43.7467 24.9488 43.4862 24.6621ZM32.0002 30.0001H26.0002V36.0001H22.0002V30.0001H16.0002V26.0001H22.0002V20.0001H26.0002V26.0001H32.0002V30.0001Z" fill="#C782F9"/>
</svg>
