<svg width="48" height="48" viewBox="0 0 48 48" fill="none" xmlns="http://www.w3.org/2000/svg">
<path d="M24.0892 25.6342C27.633 25.6342 29.2762 28.3245 29.6227 32.1435C29.7045 33.0577 29.619 34.3897 29.502 35.9332C29.1037 41.0602 28.6455 47.3602 32.0595 47.3602C34.9462 47.3602 36.4297 41.8207 37.2855 35.5072C38.112 29.2567 37.2367 26.1465 37.6665 23.3715C38.487 18.1132 43.0777 13.3987 41.6595 6.69371C40.8742 2.97446 38.8267 1.22471 36.7972 0.48971C32.124 -1.21129 29.106 2.06621 24.0877 2.06621C19.0695 2.06621 16.0522 -1.21129 11.3767 0.48971C9.34945 1.22471 7.30196 2.97446 6.51521 6.69371C5.09846 13.398 9.68695 18.1132 10.5097 23.3715C10.9395 26.1465 10.065 29.2567 10.8915 35.5072C11.7472 41.8215 13.2307 47.3602 16.1175 47.3602C19.5292 47.3602 19.074 41.0602 18.675 35.9332C18.558 34.3905 18.4717 33.0577 18.5535 32.1435C18.8985 28.3245 20.565 25.6342 24.0877 25.6342H24.0892Z" fill="#C782F9"/>
</svg>
