<svg width="48" height="48" viewBox="0 0 48 48" fill="none" xmlns="http://www.w3.org/2000/svg">
<path fill-rule="evenodd" clip-rule="evenodd" d="M24 10C14 10 5.5 17.2 2.3 23.2C1.9 23.7 1.9 24.3 2.3 24.8C5.5 30.8 14 38 24 38C34 38 42.5 30.8 45.7 24.8C46.1 24.3 46.1 23.7 45.7 23.2C42.5 17.2 34 10 24 10ZM24 32C19.6 32 16 28.4 16 24C16 19.6 19.6 16 24 16C28.4 16 32 19.6 32 24C32 28.4 28.4 32 24 32ZM24 20C21.8 20 20 21.8 20 24C20 26.2 21.8 28 24 28C26.2 28 28 26.2 28 24C28 21.8 26.2 20 24 20Z" fill="#C782F9"/>
</svg>
