<svg width="48" height="48" viewBox="0 0 256 256" xmlns="http://www.w3.org/2000/svg"><g fill="#C782F9"><rect x="109" y="8" width="41" height="1"/><rect x="109" y="104" width="41" height="1"/><rect x="109" y="164" width="41" height="1"/><rect x="108" y="9" width="43" height="1"/><rect x="108" y="103" width="43" height="1"/><rect x="108" y="165" width="43" height="2"/><rect x="107" y="10" width="45" height="4"/><rect x="107" y="167" width="45" height="2"/><rect x="106" y="14" width="47" height="4"/><rect x="106" y="169" width="47" height="1"/><rect x="105" y="18" width="49" height="4"/><rect x="105" y="101" width="49" height="1"/><rect x="105" y="171" width="49" height="1"/><rect x="104" y="22" width="51" height="4"/><rect x="104" y="172" width="51" height="3"/><rect x="103" y="26" width="53" height="3"/><rect x="102" y="29" width="55" height="2"/><rect x="101" y="31" width="57" height="1"/><rect x="100" y="32" width="59" height="1"/><rect x="99" y="33" width="61" height="1"/><rect x="98" y="34" width="63" height="1"/><rect x="97" y="35" width="65" height="1"/><rect x="96" y="36" width="67" height="1"/><rect x="94" y="37" width="71" height="1"/><rect x="91" y="38" width="77" height="1"/><rect x="72" y="39" width="114" height="1"/><rect x="68" y="40" width="123" height="1"/><rect x="64" y="41" width="131" height="1"/><rect x="62" y="42" width="135" height="1"/><rect x="62" y="89" width="135" height="1"/><rect x="60" y="43" width="140" height="1"/><rect x="57" y="44" width="145" height="1"/><rect x="56" y="45" width="148" height="1"/><rect x="53" y="46" width="153" height="1"/><rect x="51" y="47" width="157" height="1"/><rect x="49" y="48" width="161" height="1"/><rect x="47" y="49" width="165" height="1"/><rect x="45" y="50" width="169" height="1"/><rect x="43" y="51" width="173" height="1"/><rect x="41" y="52" width="177" height="1"/><rect x="39" y="53" width="181" height="1"/><rect x="37" y="54" width="185" height="1"/><rect x="35" y="55" width="189" height="1"/><rect x="33" y="56" width="193" height="1"/><rect x="31" y="57" width="197" height="1"/><rect x="29" y="58" width="201" height="1"/><rect x="27" y="59" width="205" height="1"/><rect x="25" y="60" width="209" height="1"/><rect x="23" y="61" width="213" height="1"/><rect x="21" y="62" width="217" height="1"/><rect x="19" y="63" width="221" height="1"/><rect x="17" y="64" width="225" height="1"/><rect x="15" y="65" width="229" height="1"/><rect x="13" y="66" width="233" height="1"/><rect x="11" y="67" width="237" height="1"/><rect x="9" y="68" width="241" height="1"/><rect x="8" y="69" width="243" height="20"/><rect x="8" y="89" width="44" height="1"/><rect x="208" y="89" width="43" height="1"/><rect x="8" y="90" width="41" height="1"/><rect x="65" y="90" width="130" height="1"/><rect x="210" y="90" width="41" height="1"/><rect x="8" y="91" width="39" height="1"/><rect x="67" y="91" width="126" height="1"/><rect x="212" y="91" width="39" height="1"/><rect x="8" y="92" width="37" height="1"/><rect x="68" y="92" width="124" height="1"/><rect x="214" y="92" width="37" height="1"/><rect x="8" y="93" width="35" height="1"/><rect x="69" y="93" width="121" height="1"/><rect x="216" y="93" width="35" height="1"/><rect x="8" y="94" width="33" height="1"/><rect x="70" y="94" width="119" height="1"/><rect x="70" y="247" width="119" height="2"/><rect x="218" y="94" width="33" height="1"/><rect x="8" y="95" width="31" height="1"/><rect x="71" y="95" width="118" height="1"/><rect x="71" y="249" width="118" height="1"/><rect x="220" y="95" width="31" height="1"/><rect x="8" y="96" width="29" height="1"/><rect x="72" y="96" width="116" height="1"/><rect x="222" y="96" width="29" height="1"/><rect x="8" y="97" width="27" height="1"/><rect x="72" y="97" width="115" height="1"/><rect x="72" y="236" width="115" height="6"/><rect x="224" y="97" width="27" height="1"/><rect x="8" y="98" width="25" height="1"/><rect x="73" y="98" width="114" height="1"/><rect x="226" y="98" width="25" height="1"/><rect x="8" y="99" width="23" height="1"/><rect x="73" y="99" width="113" height="1"/><rect x="73" y="230" width="113" height="6"/><rect x="228" y="99" width="23" height="1"/><rect x="8" y="100" width="21" height="1"/><rect x="73" y="100" width="21" height="1"/><rect x="103" y="100" width="54" height="1"/><rect x="165" y="100" width="21" height="1"/><rect x="230" y="100" width="21" height="1"/><rect x="8" y="101" width="19" height="1"/><rect x="74" y="101" width="17" height="1"/><rect x="167" y="101" width="19" height="1"/><rect x="232" y="101" width="19" height="1"/><rect x="8" y="102" width="17" height="1"/><rect x="75" y="102" width="15" height="1"/><rect x="107" y="102" width="46" height="1"/><rect x="169" y="102" width="16" height="1"/><rect x="234" y="102" width="17" height="1"/><rect x="8" y="103" width="15" height="1"/><rect x="80" y="103" width="8" height="1"/><rect x="80" y="139" width="8" height="1"/><rect x="171" y="103" width="9" height="1"/><rect x="171" y="141" width="9" height="1"/><rect x="236" y="103" width="15" height="1"/><rect x="8" y="104" width="13" height="1"/><rect x="83" y="104" width="4" height="1"/><rect x="172" y="104" width="6" height="1"/><rect x="238" y="104" width="13" height="1"/><rect x="8" y="105" width="11" height="1"/><rect x="84" y="105" width="2" height="1"/><rect x="110" y="105" width="39" height="1"/><rect x="110" y="162" width="39" height="2"/><rect x="173" y="105" width="3" height="1"/><rect x="240" y="105" width="11" height="1"/><rect x="8" y="106" width="9" height="1"/><rect x="111" y="106" width="38" height="1"/><rect x="242" y="106" width="9" height="1"/><rect x="8" y="107" width="7" height="1"/><rect x="112" y="107" width="36" height="1"/><rect x="244" y="107" width="7" height="1"/><rect x="8" y="108" width="5" height="1"/><rect x="112" y="108" width="35" height="2"/><rect x="112" y="159" width="35" height="1"/><rect x="246" y="108" width="5" height="1"/><rect x="9" y="109" width="1" height="1"/><rect x="248" y="109" width="2" height="1"/><rect x="113" y="110" width="33" height="6"/><rect x="113" y="157" width="33" height="1"/><rect x="159" y="111" width="2" height="1"/><rect x="95" y="112" width="5" height="1"/><rect x="158" y="112" width="5" height="1"/><rect x="95" y="113" width="6" height="1"/><rect x="157" y="113" width="7" height="2"/><rect x="73" y="114" width="3" height="1"/><rect x="94" y="114" width="7" height="1"/><rect x="182" y="114" width="3" height="1"/><rect x="72" y="115" width="6" height="1"/><rect x="93" y="115" width="8" height="2"/><rect x="93" y="154" width="8" height="1"/><rect x="157" y="115" width="8" height="1"/><rect x="181" y="115" width="5" height="1"/><rect x="71" y="116" width="7" height="1"/><rect x="114" y="116" width="32" height="1"/><rect x="157" y="116" width="9" height="2"/><rect x="157" y="154" width="9" height="1"/><rect x="180" y="116" width="7" height="1"/><rect x="70" y="117" width="8" height="2"/><rect x="70" y="156" width="8" height="1"/><rect x="92" y="117" width="9" height="1"/><rect x="92" y="155" width="9" height="1"/><rect x="114" y="117" width="31" height="1"/><rect x="114" y="155" width="31" height="2"/><rect x="180" y="117" width="8" height="2"/><rect x="92" y="118" width="8" height="1"/><rect x="92" y="156" width="8" height="1"/><rect x="115" y="118" width="29" height="1"/><rect x="115" y="153" width="29" height="2"/><rect x="158" y="118" width="9" height="1"/><rect x="158" y="156" width="9" height="1"/><rect x="69" y="119" width="9" height="1"/><rect x="69" y="157" width="9" height="1"/><rect x="91" y="119" width="9" height="1"/><rect x="91" y="157" width="9" height="1"/><rect x="117" y="119" width="25" height="1"/><rect x="117" y="150" width="25" height="1"/><rect x="159" y="119" width="8" height="1"/><rect x="159" y="157" width="8" height="1"/><rect x="180" y="119" width="9" height="1"/><rect x="180" y="156" width="9" height="1"/><rect x="69" y="120" width="8" height="1"/><rect x="90" y="120" width="9" height="1"/><rect x="90" y="158" width="9" height="1"/><rect x="119" y="120" width="21" height="1"/><rect x="119" y="146" width="21" height="2"/><rect x="159" y="120" width="9" height="1"/><rect x="159" y="158" width="9" height="1"/><rect x="181" y="120" width="8" height="1"/><rect x="181" y="157" width="8" height="1"/><rect x="68" y="121" width="9" height="1"/><rect x="68" y="158" width="9" height="1"/><rect x="90" y="121" width="8" height="1"/><rect x="90" y="159" width="8" height="1"/><rect x="120" y="121" width="19" height="1"/><rect x="120" y="145" width="19" height="1"/><rect x="120" y="178" width="19" height="1"/><rect x="160" y="121" width="9" height="2"/><rect x="181" y="121" width="9" height="1"/><rect x="181" y="158" width="9" height="1"/><rect x="68" y="122" width="8" height="1"/><rect x="68" y="159" width="8" height="1"/><rect x="89" y="122" width="9" height="1"/><rect x="89" y="160" width="9" height="1"/><rect x="121" y="122" width="17" height="1"/><rect x="121" y="143" width="17" height="1"/><rect x="121" y="203" width="17" height="1"/><rect x="182" y="122" width="9" height="1"/><rect x="182" y="159" width="9" height="1"/><rect x="67" y="123" width="8" height="1"/><rect x="89" y="123" width="8" height="1"/><rect x="89" y="161" width="8" height="1"/><rect x="122" y="123" width="15" height="1"/><rect x="122" y="141" width="15" height="2"/><rect x="122" y="180" width="15" height="1"/><rect x="122" y="202" width="15" height="1"/><rect x="161" y="123" width="9" height="1"/><rect x="161" y="161" width="9" height="1"/><rect x="183" y="123" width="8" height="1"/><rect x="66" y="124" width="9" height="1"/><rect x="88" y="124" width="9" height="1"/><rect x="88" y="162" width="9" height="1"/><rect x="123" y="124" width="14" height="1"/><rect x="162" y="124" width="8" height="1"/><rect x="162" y="162" width="8" height="1"/><rect x="183" y="124" width="9" height="1"/><rect x="210" y="124" width="3" height="1"/><rect x="44" y="125" width="5" height="1"/><rect x="66" y="125" width="8" height="1"/><rect x="88" y="125" width="8" height="1"/><rect x="88" y="163" width="8" height="1"/><rect x="123" y="125" width="13" height="1"/><rect x="123" y="139" width="13" height="2"/><rect x="123" y="181" width="13" height="1"/><rect x="123" y="201" width="13" height="1"/><rect x="162" y="125" width="9" height="1"/><rect x="162" y="163" width="9" height="1"/><rect x="184" y="125" width="8" height="1"/><rect x="209" y="125" width="5" height="1"/><rect x="43" y="126" width="7" height="2"/><rect x="65" y="126" width="9" height="1"/><rect x="87" y="126" width="9" height="1"/><rect x="87" y="164" width="9" height="1"/><rect x="124" y="126" width="11" height="2"/><rect x="124" y="137" width="11" height="2"/><rect x="124" y="182" width="11" height="1"/><rect x="124" y="199" width="11" height="1"/><rect x="163" y="126" width="8" height="1"/><rect x="163" y="164" width="8" height="1"/><rect x="184" y="126" width="9" height="1"/><rect x="208" y="126" width="7" height="2"/><rect x="65" y="127" width="8" height="1"/><rect x="86" y="127" width="9" height="2"/><rect x="86" y="165" width="9" height="1"/><rect x="163" y="127" width="9" height="1"/><rect x="163" y="165" width="9" height="1"/><rect x="185" y="127" width="8" height="1"/><rect x="42" y="128" width="8" height="2"/><rect x="64" y="128" width="9" height="1"/><rect x="125" y="128" width="10" height="1"/><rect x="125" y="183" width="10" height="1"/><rect x="164" y="128" width="8" height="1"/><rect x="164" y="166" width="8" height="1"/><rect x="186" y="128" width="8" height="1"/><rect x="208" y="128" width="8" height="2"/><rect x="64" y="129" width="8" height="1"/><rect x="85" y="129" width="9" height="1"/><rect x="85" y="167" width="9" height="1"/><rect x="108" y="129" width="4" height="1"/><rect x="125" y="129" width="9" height="8"/><rect x="125" y="184" width="9" height="1"/><rect x="125" y="197" width="9" height="2"/><rect x="147" y="129" width="3" height="1"/><rect x="164" y="129" width="9" height="1"/><rect x="186" y="129" width="9" height="1"/><rect x="41" y="130" width="9" height="1"/><rect x="63" y="130" width="8" height="1"/><rect x="85" y="130" width="8" height="1"/><rect x="107" y="130" width="6" height="1"/><rect x="146" y="130" width="6" height="1"/><rect x="165" y="130" width="8" height="1"/><rect x="165" y="167" width="8" height="1"/><rect x="187" y="130" width="8" height="1"/><rect x="208" y="130" width="9" height="1"/><rect x="40" y="131" width="9" height="2"/><rect x="62" y="131" width="9" height="1"/><rect x="84" y="131" width="9" height="1"/><rect x="84" y="168" width="9" height="1"/><rect x="106" y="131" width="7" height="1"/><rect x="145" y="131" width="7" height="1"/><rect x="166" y="131" width="8" height="1"/><rect x="187" y="131" width="9" height="1"/><rect x="209" y="131" width="9" height="1"/><rect x="62" y="132" width="8" height="1"/><rect x="84" y="132" width="8" height="1"/><rect x="105" y="132" width="8" height="2"/><rect x="145" y="132" width="8" height="2"/><rect x="166" y="132" width="9" height="1"/><rect x="166" y="169" width="9" height="1"/><rect x="188" y="132" width="8" height="1"/><rect x="210" y="132" width="8" height="1"/><rect x="39" y="133" width="9" height="1"/><rect x="61" y="133" width="9" height="1"/><rect x="83" y="133" width="9" height="1"/><rect x="167" y="133" width="8" height="1"/><rect x="188" y="133" width="9" height="1"/><rect x="210" y="133" width="9" height="1"/><rect x="39" y="134" width="8" height="1"/><rect x="61" y="134" width="8" height="1"/><rect x="82" y="134" width="9" height="1"/><rect x="104" y="134" width="9" height="1"/><rect x="146" y="134" width="8" height="1"/><rect x="167" y="134" width="9" height="1"/><rect x="189" y="134" width="9" height="1"/><rect x="211" y="134" width="8" height="1"/><rect x="38" y="135" width="9" height="1"/><rect x="60" y="135" width="9" height="1"/><rect x="82" y="135" width="8" height="1"/><rect x="104" y="135" width="8" height="1"/><rect x="146" y="135" width="9" height="1"/><rect x="168" y="135" width="8" height="1"/><rect x="190" y="135" width="8" height="1"/><rect x="211" y="135" width="9" height="1"/><rect x="38" y="136" width="8" height="1"/><rect x="60" y="136" width="8" height="1"/><rect x="81" y="136" width="9" height="1"/><rect x="103" y="136" width="9" height="1"/><rect x="147" y="136" width="8" height="1"/><rect x="169" y="136" width="8" height="1"/><rect x="190" y="136" width="9" height="1"/><rect x="212" y="136" width="9" height="1"/><rect x="37" y="137" width="9" height="1"/><rect x="59" y="137" width="8" height="1"/><rect x="81" y="137" width="8" height="1"/><rect x="103" y="137" width="8" height="1"/><rect x="147" y="137" width="9" height="1"/><rect x="169" y="137" width="9" height="1"/><rect x="191" y="137" width="8" height="1"/><rect x="213" y="137" width="8" height="1"/><rect x="36" y="138" width="9" height="1"/><rect x="58" y="138" width="9" height="1"/><rect x="80" y="138" width="9" height="1"/><rect x="102" y="138" width="9" height="1"/><rect x="148" y="138" width="8" height="1"/><rect x="170" y="138" width="8" height="1"/><rect x="191" y="138" width="9" height="1"/><rect x="213" y="138" width="9" height="1"/><rect x="36" y="139" width="8" height="1"/><rect x="58" y="139" width="8" height="1"/><rect x="101" y="139" width="9" height="1"/><rect x="148" y="139" width="9" height="1"/><rect x="170" y="139" width="9" height="1"/><rect x="192" y="139" width="8" height="1"/><rect x="214" y="139" width="8" height="1"/><rect x="35" y="140" width="9" height="1"/><rect x="57" y="140" width="9" height="1"/><rect x="79" y="140" width="9" height="1"/><rect x="101" y="140" width="8" height="1"/><rect x="149" y="140" width="8" height="1"/><rect x="171" y="140" width="8" height="1"/><rect x="193" y="140" width="8" height="2"/><rect x="214" y="140" width="9" height="1"/><rect x="35" y="141" width="8" height="1"/><rect x="57" y="141" width="8" height="1"/><rect x="78" y="141" width="9" height="1"/><rect x="100" y="141" width="9" height="1"/><rect x="150" y="141" width="8" height="1"/><rect x="215" y="141" width="8" height="1"/><rect x="34" y="142" width="9" height="1"/><rect x="56" y="142" width="9" height="1"/><rect x="78" y="142" width="8" height="1"/><rect x="100" y="142" width="8" height="1"/><rect x="150" y="142" width="9" height="1"/><rect x="172" y="142" width="8" height="1"/><rect x="194" y="142" width="8" height="1"/><rect x="216" y="142" width="8" height="1"/><rect x="34" y="143" width="8" height="1"/><rect x="55" y="143" width="9" height="1"/><rect x="77" y="143" width="9" height="1"/><rect x="99" y="143" width="9" height="1"/><rect x="151" y="143" width="8" height="1"/><rect x="173" y="143" width="8" height="1"/><rect x="194" y="143" width="9" height="1"/><rect x="216" y="143" width="9" height="2"/><rect x="33" y="144" width="9" height="1"/><rect x="55" y="144" width="8" height="1"/><rect x="77" y="144" width="8" height="1"/><rect x="98" y="144" width="9" height="2"/><rect x="120" y="144" width="18" height="1"/><rect x="151" y="144" width="9" height="1"/><rect x="173" y="144" width="9" height="1"/><rect x="195" y="144" width="8" height="1"/><rect x="32" y="145" width="10" height="2"/><rect x="54" y="145" width="9" height="1"/><rect x="76" y="145" width="9" height="1"/><rect x="152" y="145" width="8" height="1"/><rect x="174" y="145" width="8" height="1"/><rect x="195" y="145" width="9" height="1"/><rect x="216" y="145" width="10" height="2"/><rect x="54" y="146" width="8" height="1"/><rect x="75" y="146" width="9" height="1"/><rect x="97" y="146" width="9" height="1"/><rect x="152" y="146" width="9" height="1"/><rect x="174" y="146" width="9" height="1"/><rect x="196" y="146" width="8" height="1"/><rect x="31" y="147" width="11" height="2"/><rect x="53" y="147" width="9" height="1"/><rect x="75" y="147" width="8" height="1"/><rect x="97" y="147" width="8" height="1"/><rect x="153" y="147" width="9" height="1"/><rect x="175" y="147" width="8" height="1"/><rect x="197" y="147" width="8" height="1"/><rect x="216" y="147" width="11" height="2"/><rect x="53" y="148" width="8" height="1"/><rect x="74" y="148" width="9" height="1"/><rect x="96" y="148" width="9" height="1"/><rect x="118" y="148" width="23" height="2"/><rect x="154" y="148" width="8" height="1"/><rect x="175" y="148" width="9" height="1"/><rect x="197" y="148" width="9" height="1"/><rect x="30" y="149" width="13" height="1"/><rect x="52" y="149" width="9" height="1"/><rect x="74" y="149" width="8" height="1"/><rect x="96" y="149" width="8" height="1"/><rect x="154" y="149" width="9" height="1"/><rect x="176" y="149" width="8" height="1"/><rect x="198" y="149" width="8" height="1"/><rect x="215" y="149" width="13" height="1"/><rect x="30" y="150" width="14" height="1"/><rect x="51" y="150" width="9" height="1"/><rect x="73" y="150" width="9" height="1"/><rect x="95" y="150" width="9" height="1"/><rect x="155" y="150" width="8" height="1"/><rect x="177" y="150" width="8" height="1"/><rect x="198" y="150" width="9" height="1"/><rect x="214" y="150" width="14" height="1"/><rect x="29" y="151" width="30" height="2"/><rect x="73" y="151" width="8" height="1"/><rect x="94" y="151" width="9" height="2"/><rect x="116" y="151" width="26" height="1"/><rect x="155" y="151" width="9" height="1"/><rect x="177" y="151" width="9" height="1"/><rect x="199" y="151" width="30" height="2"/><rect x="72" y="152" width="9" height="1"/><rect x="116" y="152" width="27" height="1"/><rect x="156" y="152" width="8" height="1"/><rect x="178" y="152" width="8" height="1"/><rect x="29" y="153" width="29" height="1"/><rect x="71" y="153" width="9" height="1"/><rect x="93" y="153" width="9" height="1"/><rect x="156" y="153" width="9" height="1"/><rect x="178" y="153" width="9" height="1"/><rect x="200" y="153" width="29" height="1"/><rect x="28" y="154" width="30" height="3"/><rect x="28" y="220" width="30" height="1"/><rect x="71" y="154" width="8" height="1"/><rect x="179" y="154" width="8" height="1"/><rect x="200" y="154" width="30" height="3"/><rect x="70" y="155" width="9" height="1"/><rect x="158" y="155" width="8" height="1"/><rect x="179" y="155" width="9" height="1"/><rect x="27" y="157" width="31" height="1"/><rect x="200" y="157" width="31" height="1"/><rect x="27" y="158" width="32" height="1"/><rect x="112" y="158" width="34" height="1"/><rect x="199" y="158" width="32" height="1"/><rect x="27" y="159" width="33" height="1"/><rect x="160" y="159" width="8" height="1"/><rect x="198" y="159" width="33" height="1"/><rect x="27" y="160" width="34" height="1"/><rect x="66" y="160" width="10" height="1"/><rect x="111" y="160" width="37" height="2"/><rect x="161" y="160" width="8" height="1"/><rect x="182" y="160" width="10" height="1"/><rect x="197" y="160" width="34" height="1"/><rect x="26" y="161" width="49" height="3"/><rect x="26" y="166" width="49" height="2"/><rect x="183" y="161" width="49" height="2"/><rect x="183" y="167" width="49" height="2"/><rect x="184" y="163" width="48" height="4"/><rect x="26" y="164" width="48" height="2"/><rect x="86" y="166" width="8" height="1"/><rect x="26" y="168" width="50" height="1"/><rect x="165" y="168" width="9" height="1"/><rect x="26" y="169" width="51" height="1"/><rect x="83" y="169" width="10" height="1"/><rect x="181" y="169" width="51" height="1"/><rect x="26" y="170" width="66" height="2"/><rect x="105" y="170" width="48" height="1"/><rect x="166" y="170" width="12" height="1"/><rect x="179" y="170" width="53" height="1"/><rect x="167" y="171" width="65" height="1"/><rect x="26" y="172" width="65" height="1"/><rect x="167" y="172" width="66" height="1"/><rect x="26" y="173" width="64" height="2"/><rect x="168" y="173" width="65" height="1"/><rect x="169" y="174" width="64" height="2"/><rect x="25" y="175" width="64" height="2"/><rect x="113" y="175" width="41" height="1"/><rect x="117" y="176" width="26" height="1"/><rect x="170" y="176" width="63" height="2"/><rect x="25" y="177" width="63" height="2"/><rect x="119" y="177" width="22" height="1"/><rect x="171" y="178" width="62" height="1"/><rect x="25" y="179" width="62" height="2"/><rect x="122" y="179" width="16" height="1"/><rect x="172" y="179" width="61" height="4"/><rect x="25" y="181" width="61" height="2"/><rect x="24" y="183" width="62" height="1"/><rect x="172" y="183" width="62" height="3"/><rect x="24" y="184" width="63" height="2"/><rect x="126" y="185" width="8" height="1"/><rect x="24" y="186" width="64" height="1"/><rect x="109" y="186" width="3" height="1"/><rect x="126" y="186" width="7" height="2"/><rect x="126" y="194" width="7" height="3"/><rect x="171" y="186" width="63" height="1"/><rect x="24" y="187" width="66" height="1"/><rect x="98" y="187" width="15" height="1"/><rect x="145" y="187" width="14" height="1"/><rect x="169" y="187" width="66" height="1"/><rect x="23" y="188" width="91" height="1"/><rect x="127" y="188" width="6" height="2"/><rect x="127" y="193" width="6" height="1"/><rect x="145" y="188" width="90" height="1"/><rect x="23" y="189" width="92" height="2"/><rect x="144" y="189" width="91" height="2"/><rect x="127" y="190" width="5" height="3"/><rect x="22" y="191" width="93" height="2"/><rect x="144" y="191" width="92" height="3"/><rect x="22" y="193" width="92" height="1"/><rect x="21" y="194" width="92" height="1"/><rect x="145" y="194" width="92" height="1"/><rect x="21" y="195" width="89" height="1"/><rect x="147" y="195" width="90" height="1"/><rect x="21" y="196" width="82" height="1"/><rect x="154" y="196" width="84" height="1"/><rect x="20" y="197" width="77" height="1"/><rect x="160" y="197" width="78" height="1"/><rect x="20" y="198" width="71" height="1"/><rect x="167" y="198" width="71" height="1"/><rect x="19" y="199" width="69" height="1"/><rect x="170" y="199" width="69" height="1"/><rect x="19" y="200" width="66" height="1"/><rect x="123" y="200" width="12" height="1"/><rect x="174" y="200" width="66" height="1"/><rect x="18" y="201" width="64" height="1"/><rect x="176" y="201" width="64" height="1"/><rect x="18" y="202" width="62" height="1"/><rect x="179" y="202" width="62" height="1"/><rect x="17" y="203" width="61" height="1"/><rect x="181" y="203" width="60" height="1"/><rect x="16" y="204" width="60" height="1"/><rect x="119" y="204" width="20" height="1"/><rect x="182" y="204" width="60" height="1"/><rect x="16" y="205" width="58" height="1"/><rect x="117" y="205" width="24" height="1"/><rect x="184" y="205" width="58" height="1"/><rect x="15" y="206" width="58" height="1"/><rect x="115" y="206" width="28" height="1"/><rect x="186" y="206" width="57" height="1"/><rect x="15" y="207" width="56" height="1"/><rect x="109" y="207" width="38" height="1"/><rect x="187" y="207" width="56" height="1"/><rect x="14" y="208" width="56" height="1"/><rect x="102" y="208" width="52" height="1"/><rect x="189" y="208" width="55" height="1"/><rect x="14" y="209" width="55" height="1"/><rect x="96" y="209" width="64" height="1"/><rect x="190" y="209" width="55" height="1"/><rect x="13" y="210" width="54" height="1"/><rect x="92" y="210" width="74" height="1"/><rect x="191" y="210" width="54" height="1"/><rect x="13" y="211" width="53" height="1"/><rect x="89" y="211" width="80" height="1"/><rect x="192" y="211" width="53" height="1"/><rect x="14" y="212" width="51" height="1"/><rect x="87" y="212" width="85" height="1"/><rect x="193" y="212" width="51" height="1"/><rect x="16" y="213" width="48" height="1"/><rect x="84" y="213" width="90" height="1"/><rect x="195" y="213" width="47" height="1"/><rect x="17" y="214" width="46" height="1"/><rect x="82" y="214" width="94" height="1"/><rect x="196" y="214" width="45" height="1"/><rect x="19" y="215" width="43" height="1"/><rect x="81" y="215" width="97" height="1"/><rect x="196" y="215" width="43" height="1"/><rect x="21" y="216" width="40" height="1"/><rect x="79" y="216" width="100" height="1"/><rect x="197" y="216" width="40" height="1"/><rect x="22" y="217" width="38" height="1"/><rect x="78" y="217" width="103" height="1"/><rect x="198" y="217" width="38" height="1"/><rect x="24" y="218" width="36" height="1"/><rect x="76" y="218" width="106" height="1"/><rect x="199" y="218" width="35" height="1"/><rect x="26" y="219" width="33" height="1"/><rect x="75" y="219" width="108" height="1"/><rect x="200" y="219" width="32" height="1"/><rect x="75" y="220" width="109" height="4"/><rect x="201" y="220" width="29" height="1"/><rect x="29" y="221" width="28" height="1"/><rect x="201" y="221" width="28" height="1"/><rect x="31" y="222" width="26" height="1"/><rect x="202" y="222" width="25" height="1"/><rect x="33" y="223" width="23" height="1"/><rect x="203" y="223" width="22" height="1"/><rect x="35" y="224" width="20" height="1"/><rect x="74" y="224" width="111" height="6"/><rect x="203" y="224" width="21" height="1"/><rect x="36" y="225" width="19" height="1"/><rect x="204" y="225" width="18" height="1"/><rect x="38" y="226" width="16" height="1"/><rect x="205" y="226" width="15" height="1"/><rect x="40" y="227" width="14" height="1"/><rect x="205" y="227" width="13" height="1"/><rect x="42" y="228" width="11" height="1"/><rect x="206" y="228" width="11" height="1"/><rect x="43" y="229" width="9" height="1"/><rect x="206" y="229" width="9" height="1"/><rect x="45" y="230" width="7" height="1"/><rect x="207" y="230" width="6" height="1"/><rect x="47" y="231" width="4" height="1"/><rect x="208" y="231" width="4" height="1"/><rect x="48" y="232" width="2" height="1"/><rect x="209" y="232" width="1" height="1"/><rect x="71" y="242" width="117" height="5"/><rect x="186" y="250" width="2" height="1"/></g></svg>