<svg width="48" height="48" viewBox="0 0 256 256" xmlns="http://www.w3.org/2000/svg"><g fill="#C782F9"><rect x="91" y="0" width="6" height="1"/><rect x="89" y="1" width="10" height="1"/><rect x="88" y="2" width="12" height="1"/><rect x="88" y="33" width="12" height="1"/><rect x="87" y="3" width="14" height="1"/><rect x="87" y="32" width="14" height="1"/><rect x="86" y="4" width="16" height="1"/><rect x="86" y="31" width="16" height="1"/><rect x="85" y="5" width="18" height="2"/><rect x="85" y="29" width="18" height="1"/><rect x="84" y="7" width="20" height="2"/><rect x="84" y="27" width="20" height="2"/><rect x="83" y="9" width="22" height="3"/><rect x="83" y="24" width="22" height="3"/><rect x="63" y="11" width="5" height="1"/><rect x="62" y="12" width="8" height="1"/><rect x="82" y="12" width="24" height="11"/><rect x="61" y="13" width="10" height="1"/><rect x="60" y="14" width="12" height="2"/><rect x="59" y="16" width="14" height="2"/><rect x="59" y="18" width="15" height="9"/><rect x="45" y="22" width="3" height="1"/><rect x="44" y="23" width="6" height="1"/><rect x="83" y="23" width="23" height="1"/><rect x="43" y="24" width="8" height="1"/><rect x="42" y="25" width="10" height="2"/><rect x="42" y="27" width="11" height="3"/><rect x="60" y="27" width="14" height="2"/><rect x="61" y="29" width="12" height="1"/><rect x="42" y="30" width="12" height="3"/><rect x="62" y="30" width="11" height="1"/><rect x="86" y="30" width="17" height="1"/><rect x="62" y="31" width="10" height="1"/><rect x="64" y="32" width="7" height="1"/><rect x="43" y="33" width="11" height="1"/><rect x="65" y="33" width="4" height="1"/><rect x="28" y="34" width="5" height="1"/><rect x="43" y="34" width="10" height="1"/><rect x="90" y="34" width="8" height="1"/><rect x="27" y="35" width="7" height="1"/><rect x="44" y="35" width="9" height="2"/><rect x="93" y="35" width="2" height="1"/><rect x="27" y="36" width="8" height="1"/><rect x="26" y="37" width="10" height="2"/><rect x="45" y="37" width="7" height="1"/><rect x="47" y="38" width="4" height="1"/><rect x="162" y="38" width="8" height="1"/><rect x="26" y="39" width="11" height="2"/><rect x="161" y="39" width="10" height="1"/><rect x="80" y="40" width="16" height="1"/><rect x="159" y="40" width="13" height="1"/><rect x="27" y="41" width="10" height="1"/><rect x="73" y="41" width="27" height="1"/><rect x="158" y="41" width="15" height="1"/><rect x="158" y="78" width="15" height="1"/><rect x="27" y="42" width="11" height="2"/><rect x="68" y="42" width="34" height="1"/><rect x="157" y="42" width="17" height="1"/><rect x="63" y="43" width="41" height="1"/><rect x="157" y="43" width="18" height="1"/><rect x="28" y="44" width="9" height="2"/><rect x="58" y="44" width="47" height="1"/><rect x="156" y="44" width="19" height="1"/><rect x="53" y="45" width="53" height="1"/><rect x="53" y="159" width="53" height="2"/><rect x="156" y="45" width="20" height="1"/><rect x="29" y="46" width="8" height="1"/><rect x="48" y="46" width="59" height="1"/><rect x="155" y="46" width="21" height="2"/><rect x="30" y="47" width="6" height="1"/><rect x="44" y="47" width="64" height="1"/><rect x="32" y="48" width="3" height="1"/><rect x="41" y="48" width="68" height="1"/><rect x="154" y="48" width="23" height="4"/><rect x="39" y="49" width="71" height="1"/><rect x="18" y="50" width="4" height="1"/><rect x="37" y="50" width="73" height="1"/><rect x="17" y="51" width="6" height="2"/><rect x="36" y="51" width="74" height="1"/><rect x="191" y="51" width="5" height="1"/><rect x="34" y="52" width="77" height="1"/><rect x="153" y="52" width="24" height="9"/><rect x="190" y="52" width="7" height="1"/><rect x="17" y="53" width="7" height="4"/><rect x="33" y="53" width="78" height="1"/><rect x="188" y="53" width="10" height="1"/><rect x="32" y="54" width="80" height="1"/><rect x="187" y="54" width="12" height="2"/><rect x="31" y="55" width="81" height="1"/><rect x="30" y="56" width="82" height="2"/><rect x="186" y="56" width="14" height="2"/><rect x="18" y="57" width="6" height="1"/><rect x="19" y="58" width="4" height="1"/><rect x="29" y="58" width="84" height="1"/><rect x="185" y="58" width="15" height="3"/><rect x="28" y="59" width="85" height="2"/><rect x="27" y="61" width="86" height="2"/><rect x="153" y="61" width="23" height="1"/><rect x="184" y="61" width="16" height="5"/><rect x="154" y="62" width="22" height="2"/><rect x="26" y="63" width="87" height="3"/><rect x="154" y="64" width="21" height="1"/><rect x="209" y="64" width="5" height="1"/><rect x="155" y="65" width="20" height="1"/><rect x="208" y="65" width="7" height="1"/><rect x="25" y="66" width="88" height="1"/><rect x="155" y="66" width="19" height="1"/><rect x="184" y="66" width="15" height="1"/><rect x="207" y="66" width="9" height="1"/><rect x="25" y="67" width="87" height="3"/><rect x="156" y="67" width="18" height="1"/><rect x="185" y="67" width="14" height="1"/><rect x="206" y="67" width="10" height="2"/><rect x="156" y="68" width="17" height="1"/><rect x="185" y="68" width="13" height="2"/><rect x="157" y="69" width="15" height="1"/><rect x="205" y="69" width="11" height="3"/><rect x="24" y="70" width="87" height="2"/><rect x="158" y="70" width="13" height="1"/><rect x="186" y="70" width="11" height="1"/><rect x="159" y="71" width="11" height="1"/><rect x="186" y="71" width="10" height="1"/><rect x="24" y="72" width="86" height="1"/><rect x="161" y="72" width="7" height="1"/><rect x="187" y="72" width="8" height="1"/><rect x="204" y="72" width="12" height="2"/><rect x="24" y="73" width="85" height="2"/><rect x="189" y="73" width="4" height="1"/><rect x="204" y="74" width="11" height="2"/><rect x="24" y="75" width="84" height="1"/><rect x="24" y="76" width="83" height="2"/><rect x="205" y="76" width="10" height="1"/><rect x="205" y="77" width="9" height="1"/><rect x="225" y="77" width="4" height="1"/><rect x="25" y="78" width="81" height="1"/><rect x="205" y="78" width="8" height="1"/><rect x="223" y="78" width="7" height="1"/><rect x="25" y="79" width="80" height="1"/><rect x="155" y="79" width="23" height="1"/><rect x="206" y="79" width="6" height="1"/><rect x="222" y="79" width="8" height="1"/><rect x="25" y="80" width="79" height="1"/><rect x="153" y="80" width="30" height="1"/><rect x="221" y="80" width="10" height="2"/><rect x="25" y="81" width="78" height="1"/><rect x="151" y="81" width="36" height="1"/><rect x="26" y="82" width="76" height="1"/><rect x="150" y="82" width="40" height="1"/><rect x="220" y="82" width="11" height="2"/><rect x="26" y="83" width="75" height="1"/><rect x="149" y="83" width="44" height="1"/><rect x="26" y="84" width="74" height="1"/><rect x="148" y="84" width="49" height="1"/><rect x="148" y="188" width="49" height="1"/><rect x="219" y="84" width="12" height="1"/><rect x="27" y="85" width="72" height="1"/><rect x="147" y="85" width="53" height="1"/><rect x="219" y="85" width="11" height="2"/><rect x="27" y="86" width="71" height="1"/><rect x="147" y="86" width="57" height="1"/><rect x="27" y="87" width="70" height="1"/><rect x="146" y="87" width="61" height="1"/><rect x="219" y="87" width="10" height="1"/><rect x="28" y="88" width="68" height="1"/><rect x="146" y="88" width="64" height="1"/><rect x="220" y="88" width="9" height="1"/><rect x="28" y="89" width="67" height="1"/><rect x="145" y="89" width="68" height="1"/><rect x="220" y="89" width="8" height="1"/><rect x="29" y="90" width="65" height="1"/><rect x="145" y="90" width="70" height="1"/><rect x="221" y="90" width="6" height="1"/><rect x="29" y="91" width="64" height="1"/><rect x="144" y="91" width="73" height="1"/><rect x="222" y="91" width="2" height="1"/><rect x="30" y="92" width="62" height="2"/><rect x="144" y="92" width="74" height="1"/><rect x="144" y="93" width="76" height="1"/><rect x="31" y="94" width="60" height="1"/><rect x="143" y="94" width="78" height="1"/><rect x="234" y="94" width="5" height="1"/><rect x="31" y="95" width="59" height="1"/><rect x="143" y="95" width="79" height="1"/><rect x="233" y="95" width="6" height="2"/><rect x="31" y="96" width="58" height="1"/><rect x="143" y="96" width="80" height="1"/><rect x="32" y="97" width="56" height="2"/><rect x="143" y="97" width="81" height="1"/><rect x="232" y="97" width="7" height="3"/><rect x="143" y="98" width="82" height="2"/><rect x="33" y="99" width="54" height="1"/><rect x="33" y="100" width="53" height="1"/><rect x="142" y="100" width="84" height="1"/><rect x="232" y="100" width="6" height="2"/><rect x="34" y="101" width="52" height="1"/><rect x="142" y="101" width="85" height="1"/><rect x="34" y="102" width="51" height="1"/><rect x="143" y="102" width="84" height="1"/><rect x="233" y="102" width="3" height="1"/><rect x="35" y="103" width="50" height="1"/><rect x="143" y="103" width="85" height="3"/><rect x="35" y="104" width="49" height="1"/><rect x="36" y="105" width="47" height="2"/><rect x="144" y="106" width="85" height="2"/><rect x="36" y="107" width="46" height="1"/><rect x="37" y="108" width="45" height="2"/><rect x="145" y="108" width="84" height="1"/><rect x="145" y="109" width="85" height="1"/><rect x="38" y="110" width="43" height="2"/><rect x="146" y="110" width="84" height="2"/><rect x="38" y="112" width="42" height="1"/><rect x="147" y="112" width="83" height="2"/><rect x="39" y="113" width="41" height="3"/><rect x="148" y="114" width="82" height="1"/><rect x="149" y="115" width="81" height="2"/><rect x="40" y="116" width="40" height="1"/><rect x="40" y="117" width="39" height="2"/><rect x="150" y="117" width="80" height="1"/><rect x="151" y="118" width="79" height="1"/><rect x="41" y="119" width="38" height="3"/><rect x="152" y="119" width="78" height="1"/><rect x="153" y="120" width="77" height="1"/><rect x="153" y="121" width="76" height="1"/><rect x="42" y="122" width="37" height="1"/><rect x="154" y="122" width="75" height="1"/><rect x="42" y="123" width="38" height="2"/><rect x="155" y="123" width="74" height="1"/><rect x="156" y="124" width="72" height="1"/><rect x="43" y="125" width="37" height="2"/><rect x="157" y="125" width="71" height="1"/><rect x="158" y="126" width="70" height="1"/><rect x="44" y="127" width="37" height="2"/><rect x="159" y="127" width="68" height="2"/><rect x="44" y="129" width="38" height="1"/><rect x="160" y="129" width="66" height="1"/><rect x="45" y="130" width="37" height="1"/><rect x="161" y="130" width="65" height="1"/><rect x="45" y="131" width="38" height="1"/><rect x="161" y="131" width="64" height="1"/><rect x="45" y="132" width="39" height="1"/><rect x="162" y="132" width="63" height="1"/><rect x="46" y="133" width="38" height="1"/><rect x="163" y="133" width="61" height="1"/><rect x="46" y="134" width="39" height="1"/><rect x="163" y="134" width="60" height="1"/><rect x="46" y="135" width="40" height="1"/><rect x="164" y="135" width="59" height="1"/><rect x="47" y="136" width="40" height="2"/><rect x="165" y="136" width="57" height="2"/><rect x="47" y="138" width="41" height="1"/><rect x="166" y="138" width="55" height="2"/><rect x="48" y="139" width="41" height="1"/><rect x="48" y="140" width="42" height="1"/><rect x="167" y="140" width="53" height="2"/><rect x="49" y="141" width="42" height="1"/><rect x="49" y="142" width="43" height="1"/><rect x="168" y="142" width="51" height="1"/><rect x="49" y="143" width="44" height="1"/><rect x="168" y="143" width="50" height="1"/><rect x="50" y="144" width="44" height="1"/><rect x="169" y="144" width="49" height="1"/><rect x="50" y="145" width="45" height="1"/><rect x="169" y="145" width="48" height="2"/><rect x="50" y="146" width="46" height="1"/><rect x="51" y="147" width="46" height="1"/><rect x="170" y="147" width="46" height="2"/><rect x="51" y="148" width="47" height="2"/><rect x="170" y="149" width="45" height="1"/><rect x="51" y="150" width="48" height="1"/><rect x="171" y="150" width="44" height="1"/><rect x="52" y="151" width="48" height="1"/><rect x="171" y="151" width="43" height="2"/><rect x="52" y="152" width="49" height="1"/><rect x="52" y="153" width="50" height="2"/><rect x="171" y="153" width="42" height="2"/><rect x="52" y="155" width="51" height="1"/><rect x="171" y="155" width="41" height="2"/><rect x="52" y="156" width="52" height="1"/><rect x="53" y="157" width="51" height="1"/><rect x="171" y="157" width="40" height="3"/><rect x="53" y="158" width="52" height="1"/><rect x="171" y="160" width="39" height="2"/><rect x="53" y="161" width="54" height="2"/><rect x="171" y="162" width="38" height="1"/><rect x="53" y="163" width="55" height="2"/><rect x="170" y="163" width="39" height="1"/><rect x="170" y="164" width="38" height="1"/><rect x="54" y="165" width="54" height="1"/><rect x="169" y="165" width="39" height="1"/><rect x="54" y="166" width="55" height="2"/><rect x="169" y="166" width="38" height="1"/><rect x="168" y="167" width="39" height="1"/><rect x="54" y="168" width="56" height="3"/><rect x="167" y="168" width="39" height="2"/><rect x="166" y="170" width="40" height="1"/><rect x="54" y="171" width="57" height="3"/><rect x="165" y="171" width="40" height="1"/><rect x="164" y="172" width="41" height="1"/><rect x="163" y="173" width="41" height="1"/><rect x="55" y="174" width="56" height="1"/><rect x="162" y="174" width="42" height="1"/><rect x="55" y="175" width="57" height="4"/><rect x="161" y="175" width="42" height="1"/><rect x="160" y="176" width="43" height="1"/><rect x="159" y="177" width="43" height="1"/><rect x="158" y="178" width="44" height="1"/><rect x="55" y="179" width="58" height="3"/><rect x="157" y="179" width="44" height="1"/><rect x="156" y="180" width="45" height="1"/><rect x="155" y="181" width="46" height="1"/><rect x="56" y="182" width="57" height="6"/><rect x="154" y="182" width="46" height="1"/><rect x="153" y="183" width="47" height="1"/><rect x="152" y="184" width="47" height="1"/><rect x="150" y="185" width="49" height="1"/><rect x="149" y="186" width="49" height="2"/><rect x="57" y="188" width="56" height="4"/><rect x="147" y="189" width="50" height="1"/><rect x="146" y="190" width="51" height="1"/><rect x="145" y="191" width="51" height="1"/><rect x="58" y="192" width="55" height="3"/><rect x="144" y="192" width="52" height="1"/><rect x="143" y="193" width="53" height="1"/><rect x="142" y="194" width="54" height="1"/><rect x="59" y="195" width="54" height="2"/><rect x="142" y="195" width="53" height="1"/><rect x="141" y="196" width="54" height="1"/><rect x="60" y="197" width="53" height="1"/><rect x="140" y="197" width="55" height="2"/><rect x="60" y="198" width="52" height="1"/><rect x="61" y="199" width="51" height="2"/><rect x="139" y="199" width="55" height="2"/><rect x="62" y="201" width="50" height="2"/><rect x="138" y="201" width="56" height="2"/><rect x="63" y="203" width="48" height="1"/><rect x="137" y="203" width="57" height="1"/><rect x="64" y="204" width="47" height="2"/><rect x="137" y="204" width="56" height="1"/><rect x="136" y="205" width="57" height="2"/><rect x="65" y="206" width="45" height="1"/><rect x="66" y="207" width="44" height="1"/><rect x="135" y="207" width="58" height="1"/><rect x="67" y="208" width="42" height="1"/><rect x="135" y="208" width="57" height="2"/><rect x="68" y="209" width="41" height="1"/><rect x="69" y="210" width="39" height="1"/><rect x="134" y="210" width="58" height="3"/><rect x="70" y="211" width="37" height="1"/><rect x="71" y="212" width="35" height="1"/><rect x="73" y="213" width="32" height="1"/><rect x="133" y="213" width="58" height="4"/><rect x="74" y="214" width="29" height="1"/><rect x="76" y="215" width="25" height="1"/><rect x="78" y="216" width="21" height="1"/><rect x="81" y="217" width="14" height="1"/><rect x="132" y="217" width="59" height="1"/><rect x="132" y="218" width="58" height="5"/><rect x="132" y="223" width="57" height="2"/><rect x="131" y="225" width="58" height="2"/><rect x="131" y="227" width="57" height="3"/><rect x="131" y="230" width="56" height="3"/><rect x="131" y="233" width="55" height="1"/><rect x="132" y="234" width="54" height="1"/><rect x="132" y="235" width="53" height="2"/><rect x="132" y="237" width="52" height="2"/><rect x="132" y="239" width="51" height="1"/><rect x="132" y="240" width="50" height="1"/><rect x="133" y="241" width="49" height="1"/><rect x="133" y="242" width="48" height="1"/><rect x="134" y="243" width="46" height="1"/><rect x="134" y="244" width="45" height="1"/><rect x="135" y="245" width="43" height="1"/><rect x="135" y="246" width="42" height="1"/><rect x="136" y="247" width="40" height="1"/><rect x="137" y="248" width="38" height="1"/><rect x="138" y="249" width="36" height="1"/><rect x="139" y="250" width="33" height="1"/><rect x="141" y="251" width="30" height="1"/><rect x="142" y="252" width="27" height="1"/><rect x="144" y="253" width="23" height="1"/><rect x="147" y="254" width="18" height="1"/><rect x="151" y="255" width="10" height="1"/></g></svg>